<svg width="166" height="166" viewBox="0 0 166 166" fill="none" xmlns="http://www.w3.org/2000/svg">
<path d="M62.945 53.8333L62.9567 53.8683L79.255 98.3241V56.1491H72.5467V55.7408H95.6467C106.748 55.7408 114.494 61.4341 114.494 69.5949C114.494 75.5449 109.186 80.4916 101.293 81.8974L99.8408 82.0783L101.299 82.2299C106.088 82.7782 109.892 84.2483 112.587 86.6049L112.604 86.6224L124.656 53.8333H125.064L125.076 53.8683L145.819 110.44H153V110.848H130.145V110.44H136.877L130.052 91.8374H116.209V91.8491L116.285 92.0649C116.833 93.7041 117.113 95.4249 117.096 97.1574V104.134C117.096 107.722 118.677 111.356 121.704 111.356C123.478 111.356 124.895 110.732 126.587 109.186L126.826 109.407C124.994 111.344 122.772 112.167 119.441 112.167C116.933 112.167 114.774 111.56 113.048 110.37L112.721 110.137C110.446 108.41 108.964 105.598 108.328 101.766L108.223 101.147L108.118 100.214L108.107 100.051L104.292 110.434H109.705V110.842H98.3767V110.434H103.848L108.037 99.0357V99.0066C107.993 98.3346 107.968 97.6616 107.961 96.9882V92.0066C107.961 85.8874 103.411 82.3816 95.4775 82.3816H87.6783V110.44H94.4333V110.848H68.0258V110.44H74.7575L67.9325 91.8374H49.0033L42.2483 110.236L42.5283 110.189C51.4008 108.661 55.4783 101.888 55.5367 94.7599H55.945V110.848H13L44.8792 56.1491H32.0633C21.435 56.1491 16.6283 64.3566 16.5525 72.5408H16.15V55.7408H54.8483L54.615 56.1491L22.9692 110.44H39.6175C40.0317 110.44 40.44 110.422 40.8542 110.387L41.2742 110.352L41.7992 110.294L62.5308 53.8333H62.9392H62.945ZM120.596 66.0541L112.937 86.9141L112.978 86.9549L113.368 87.3399C114.494 88.4891 115.393 89.8483 116.005 91.3299L116.046 91.4291H129.9L120.596 66.0541ZM58.4825 66.0541L49.155 91.4291H67.7867L58.4825 66.0541ZM93.6342 56.1491H87.6842V81.9733H95.4775C103.37 81.9733 105.785 79.0974 105.785 69.6824C105.785 60.8333 101.585 56.1491 93.6342 56.1491Z" fill="white"/>
</svg>
