<svg width="166" height="166" viewBox="0 0 166 166" fill="none" xmlns="http://www.w3.org/2000/svg">
<g clip-path="url(#clip0_3598_1887)">
<path d="M83 13C44.3425 13 13 44.3425 13 83C13 121.658 44.3425 153 83 153C121.658 153 153 121.658 153 83C153 44.3425 121.658 13 83 13ZM83 17.55C119.143 17.55 148.444 46.8508 148.444 83C148.444 119.143 119.149 148.444 83 148.444C46.8508 148.444 17.5558 119.143 17.5558 83C17.5558 46.8567 46.8567 17.55 83 17.55ZM79.045 21.225C77.12 21.3067 75.195 21.47 73.2583 21.68L72.6342 38.8533C74.0077 38.6209 75.3891 38.438 76.7758 38.305L77.1842 26.7083L77.1083 25.9092L77.3592 26.6675L81.2325 35.3533H84.7675L88.6408 26.6733L88.8742 25.9092L88.8158 26.7083L89.2242 38.305C90.5775 38.4333 91.9833 38.62 93.3658 38.8533L92.73 21.68C90.8068 21.4633 88.8768 21.3115 86.9433 21.225L83.1342 30.7042L83 31.4042L82.8658 30.7042L79.045 21.225ZM118.105 31.865L109.104 46.0283C110.242 46.9033 111.741 48.1925 112.703 49.0733L121.179 44.675L121.716 44.2725L121.313 44.8208L116.927 53.2967C117.878 54.3175 119.248 55.9683 120.018 56.9717L134.193 47.965C133.324 46.8404 132.429 45.7357 131.51 44.6517L122.533 50.5667L121.92 51.1033L122.375 50.4325L126.342 42.5225L123.542 39.7225L115.632 43.6892L114.961 44.1442L115.492 43.5258L121.43 34.5483C120.38 33.6617 119.382 32.8508 118.105 31.865ZM45.0833 35.0792C42.9833 35.295 41.3617 36.73 36.9575 41.6417C35.4303 43.3724 33.9576 45.1505 32.5417 46.9733L44.64 58.4475C48.6475 54.0142 50.275 52.3692 53.4367 49.0383C55.6708 46.6758 56.9367 43.9633 54.6967 41.3558C53.4833 39.9442 51.4417 39.635 49.7383 40.335L49.575 40.3933L49.6333 40.2417C49.8437 39.4677 49.8215 38.6488 49.5694 37.8874C49.3173 37.1259 48.8465 36.4556 48.2158 35.96C47.7774 35.6144 47.2749 35.3591 46.7372 35.2089C46.1995 35.0587 45.6374 35.0166 45.0833 35.085V35.0792ZM45.1183 38.6667C45.9117 38.4508 46.7342 39.0167 46.915 39.8333C47.1017 40.65 46.5883 41.42 46.0167 42.0617C44.7333 43.52 40.0025 48.4667 40.0025 48.4667L37.6575 46.2325C40.09 43.2575 42.68 40.5508 43.8525 39.4775C44.2043 39.1108 44.6381 38.8329 45.1183 38.6667ZM83 41.4842C72.724 41.4796 62.8118 45.2879 55.1823 52.1717C47.5528 59.0555 42.7487 68.5252 41.7 78.7475V78.7592C41.0408 85.2446 41.9171 91.7942 44.258 97.8783C46.5988 103.962 50.3386 109.41 55.1748 113.781C60.011 118.153 65.808 121.324 72.0971 123.04C78.3861 124.756 84.9906 124.968 91.3767 123.658C100.737 121.734 109.147 116.637 115.184 109.229C121.221 101.821 124.515 92.5563 124.51 83C124.499 71.9947 120.122 61.4434 112.34 53.662C104.557 45.8806 94.0053 41.5051 83 41.4958V41.4842ZM50.7008 42.8958C50.975 42.8958 51.2608 42.9717 51.5175 43.1467C52.0308 43.4908 52.2642 44.08 52.1358 44.6633C51.9842 45.3575 51.4067 46.0108 50.94 46.5183L44.8442 53.0517L42.3942 50.7183C42.3942 50.7183 46.985 45.865 48.49 44.3075C49.085 43.6892 49.47 43.3158 49.8783 43.1117C50.1313 42.9803 50.4102 42.9066 50.695 42.8958H50.7008ZM83 46.9383C87.7372 46.933 92.4289 47.8621 96.8066 49.6724C101.184 51.4828 105.162 54.1389 108.511 57.4886C111.861 60.8383 114.517 64.8158 116.328 69.1934C118.138 73.5711 119.067 78.2628 119.062 83H83V119.062C78.2628 119.067 73.5711 118.138 69.1934 116.328C64.8158 114.517 60.8383 111.861 57.4886 108.511C54.1389 105.162 51.4828 101.184 49.6724 96.8066C47.8621 92.4289 46.933 87.7372 46.9383 83H83V46.9383Z" fill="white"/>
</g>
<defs>
<clipPath id="clip0_3598_1887">
<rect width="140" height="140" fill="white" transform="translate(13 13)"/>
</clipPath>
</defs>
</svg>
