<svg width="166" height="166" viewBox="0 0 166 166" fill="none" xmlns="http://www.w3.org/2000/svg">
<path d="M79.9783 110.72C79.92 114.733 76.7117 117.965 72.7567 117.965C68.7375 117.965 65.5817 114.809 65.5 110.79H65.4067V74.3726H65.5V74.2034C65.5 70.1609 68.7433 66.8768 72.7158 66.8768C76.6883 66.8768 79.9258 70.1609 79.9258 74.2151V74.4776H80.0192V110.79H79.9258L79.9783 110.72ZM144.944 82.2009C149.319 82.2009 153 85.8059 153 90.2334C153 94.6668 149.319 98.2543 144.944 98.2543C140.476 98.2543 136.807 94.6668 136.807 90.2101C136.807 85.7418 140.394 82.1543 144.851 82.1543L144.944 82.2009ZM132.788 106.619C133.493 107.757 133.913 109.139 133.913 110.621C133.913 114.722 130.688 117.971 126.657 117.971C123.956 117.971 121.588 116.478 120.357 114.29L108.381 98.2718L104.7 101.69V111.228H104.618C104.391 115.031 101.293 118.041 97.4725 118.041C93.5408 118.041 90.35 114.815 90.35 110.819V110.673H90.2567V55.5484H90.4142V55.2743C90.4142 51.2493 93.6283 47.9651 97.5892 47.9651C101.521 47.9651 104.735 51.2434 104.735 55.2743V55.6826H104.828L104.887 82.4984L118.368 69.3093C119.703 67.8218 121.628 66.9468 123.781 66.9468C127.8 66.9468 131.061 70.2718 131.061 74.2968C131.061 76.3151 130.285 78.0651 129.054 79.3776L129.124 79.4651L119.668 88.8276L132.974 106.683L132.881 106.777L132.788 106.619ZM55.5192 106.619C56.2192 107.757 56.6567 109.139 56.6567 110.621C56.6567 114.722 53.4192 117.971 49.4 117.971C46.6817 117.971 44.3192 116.478 43.0942 114.29L31.1125 98.2718L27.4375 101.69V111.204H27.35C27.14 115.019 24.025 118.029 20.2275 118.029C16.2842 118.029 13.0817 114.792 13.0817 110.808V110.65H13V55.5251H13.1808C13.1575 55.4376 13.1575 55.3559 13.1575 55.2684C13.1575 51.2434 16.3717 47.9651 20.3325 47.9651C24.27 47.9651 27.4783 51.2259 27.4783 55.2568V55.6651H27.5717L27.63 82.4984L41.1108 69.3093C42.4525 67.8218 44.3892 66.9468 46.5417 66.9468C50.5492 66.9468 53.8042 70.2718 53.8042 74.2968C53.8042 76.2218 53.04 78.0651 51.7858 79.3776L51.8792 79.4651L42.3883 88.8276L55.6358 106.683L55.5425 106.777L55.5192 106.619Z" fill="white"/>
</svg>
