<svg width="166" height="166" viewBox="0 0 166 166" fill="none" xmlns="http://www.w3.org/2000/svg">
<g clip-path="url(#clip0_3598_1914)">
<path d="M147.983 35.7209C146.082 28.0967 136.55 24.0484 129.883 21.4292C113.928 15.2342 91.0617 11.8917 73.6726 13.3267C56.5226 14.7559 34.3676 19.5217 23.6517 27.6184C20.5542 30.0042 18.4076 32.145 17.6959 37.6225C16.2667 49.295 21.7442 66.6842 25.0751 77.1667C26.0259 76.6884 27.2159 75.2592 30.0742 73.83C35.7909 70.9717 42.6976 69.0642 49.1317 67.88C72.2317 63.1142 104.391 62.63 128.448 62.63C131.306 62.63 134.164 62.63 136.789 62.875C139.408 62.875 142.506 63.1084 145.125 63.1084L146.554 56.68C147.744 50.73 149.413 41.6709 147.983 35.7209ZM47.7084 45.2467C44.6109 55.0117 35.5576 53.5884 26.5101 53.5884L30.7917 34.525C32.6934 34.2917 36.0301 34.525 38.1709 34.525C40.7959 34.525 42.6976 34.525 44.8442 35.2425C48.4142 36.6717 49.1317 40.9592 47.7026 45.2467H47.7084ZM58.4242 54.055C53.1859 54.3 48.4201 53.11 49.3767 47.3934C49.6101 45.9642 51.9959 35.0034 52.2351 34.525H59.8534C59.6201 36.6717 58.6634 40.0084 58.1851 42.1492C57.9517 43.5784 57.7126 44.5292 57.4734 45.9642C57.2401 47.1542 56.7559 49.295 58.6634 48.8225C59.8534 48.5834 60.0926 47.1542 60.3317 45.9642C61.0434 42.6275 62.2392 37.3892 62.7117 34.5309H70.3417C70.1084 36.4325 69.3909 39.2909 68.9126 41.1984C67.7226 47.3934 67.7226 53.5825 58.4301 54.0609L58.4242 54.055ZM77.7209 54.055C71.2867 54.055 68.9067 50.0125 70.3359 43.8175C72.4767 33.5742 83.1984 32.6175 87.4859 35.0092C89.8659 36.4325 90.3442 38.1009 89.8659 41.4375H82.7201C82.7201 40.4809 82.9592 39.53 82.2476 39.0517C81.5301 38.5792 80.3401 39.0517 79.8617 39.53C78.6717 40.72 76.7701 47.8717 78.1934 48.8225C79.8617 50.0125 81.0517 47.6267 81.2909 46.4367H88.4367C87.9642 51.2025 83.6767 54.3 77.7209 54.0609V54.055ZM102.017 53.5884V50.73H96.5334L95.1101 53.8217H87.7251C87.9584 53.11 92.0126 45.48 92.7242 44.2959L97.9684 34.7642H107.973L110.113 53.8217C108.445 53.5884 102.968 53.8217 102.017 53.5884ZM123.933 39.53C123.454 40.4809 122.503 45.2467 122.264 46.4367C121.786 48.3442 121.308 51.4417 120.596 53.3433H112.972C112.738 52.1534 115.83 40.9592 115.83 39.2909H111.07L112.26 34.0525H129.643C129.643 34.7642 128.693 38.8125 128.453 39.2909L123.933 39.53ZM134.648 53.5884H126.791L130.833 34.525H138.452L134.643 53.5825L134.648 53.5884ZM121.074 70.7383C113.689 71.45 106.783 72.1617 99.8701 73.1183C86.7742 75.02 73.1942 78.3567 62.2392 82.8833C52.9467 86.9317 39.6059 95.0284 39.6059 107.179C39.6059 109.081 39.8451 109.081 41.2742 111.228C43.4209 114.319 46.2792 118.613 48.4201 121.471C55.3267 130.279 67.7167 145.528 77.4817 151.005C80.3401 152.673 82.7201 153.863 86.2901 152.195C88.9151 151.005 91.5401 149.103 93.4417 147.668C106.065 137.431 122.503 116.466 130.122 102.413C135.366 92.6483 140.126 80.7367 143.463 69.3034C141.316 69.07 123.221 70.4934 121.074 70.7325V70.7383ZM101.778 45.725V38.8125C101.299 39.2909 98.9192 44.7684 98.6859 45.725H101.778ZM37.4651 38.8125L35.0851 49.295C38.4159 49.5342 39.3726 47.3875 39.8451 44.7684C40.5626 41.91 41.5134 38.5792 37.4651 38.8184V38.8125Z" fill="white"/>
</g>
<defs>
<clipPath id="clip0_3598_1914">
<rect width="140" height="140" fill="white" transform="translate(13 13)"/>
</clipPath>
</defs>
</svg>
