<svg width="166" height="166" viewBox="0 0 166 166" fill="none" xmlns="http://www.w3.org/2000/svg">
<path d="M55.0002 29.7358C51.2086 29.7482 47.5762 31.2619 44.8978 33.9457C42.2194 36.6295 40.7132 40.265 40.7086 44.0567V62.2392L19.2886 56.9133H19.2769C18.8158 56.7964 18.3406 56.7454 17.8652 56.7617C17.1913 56.7853 16.529 56.9438 15.9175 57.228C15.306 57.5122 14.7577 57.9161 14.3052 58.416C13.8526 58.9159 13.505 59.5015 13.2828 60.1382C13.0607 60.7748 12.9685 61.4496 13.0119 62.1225C13.6044 70.0876 16.6695 77.6688 21.7792 83.8076C26.8889 89.9464 33.7882 94.3363 41.5135 96.3642C43.3961 106.001 48.5574 114.689 56.1203 120.951C63.6832 127.214 73.1812 130.664 83.0002 130.717C92.8124 130.657 102.301 127.203 109.857 120.943C117.413 114.682 122.569 106 124.452 96.37C132.185 94.348 139.092 89.96 144.209 83.8195C149.325 77.6791 152.395 70.0932 152.989 62.1225C153.033 61.4496 152.941 60.7747 152.72 60.1377C152.499 59.5007 152.152 58.9147 151.699 58.4143C151.247 57.9138 150.7 57.5092 150.088 57.2243C149.477 56.9395 148.815 56.7802 148.141 56.7558C147.66 56.7398 147.178 56.7928 146.712 56.9133L125.286 62.2392V44.0567C125.281 40.265 123.775 36.6295 121.097 33.9457C118.418 31.2619 114.786 29.7482 110.994 29.7358C109.077 29.7828 107.182 30.1617 105.394 30.8558C94.486 35.505 87.2294 37.7858 83.0469 37.8558C78.8644 37.7858 71.6019 35.505 60.6935 30.8558C58.8781 30.1517 56.9529 29.7726 55.0061 29.7358H55.0002ZM102.454 37.9492C102.524 37.9425 102.595 37.9425 102.664 37.9492C103.044 37.9958 103.405 38.2408 103.691 38.69C103.838 38.9624 103.975 39.2407 104.099 39.5242C104.175 39.6935 104.247 39.8647 104.315 40.0375C104.388 40.2147 104.456 40.3936 104.519 40.5742C104.58 40.7555 104.637 40.9383 104.689 41.1225C104.742 41.3021 104.79 41.483 104.834 41.665C104.876 41.8507 104.913 42.0374 104.945 42.225C104.979 42.4129 105.008 42.6015 105.033 42.7908C105.056 42.9712 105.076 43.1521 105.091 43.3333C105.106 43.5314 105.116 43.7298 105.12 43.9283C105.133 44.2335 105.133 44.539 105.12 44.8442C105.134 44.8442 105.147 44.8442 105.161 44.8442L107.92 41.7758C107.939 41.7558 107.959 41.7364 107.979 41.7175C107.998 41.6995 108.017 41.682 108.037 41.665C108.06 41.6448 108.083 41.6254 108.107 41.6067C108.12 41.5948 108.134 41.5831 108.148 41.5717C108.171 41.5554 108.194 41.5399 108.218 41.525C108.235 41.513 108.252 41.5013 108.27 41.49C108.291 41.4778 108.313 41.4661 108.334 41.455C108.354 41.4448 108.373 41.4351 108.393 41.4258C108.414 41.4156 108.435 41.4059 108.457 41.3967C108.482 41.3862 108.507 41.3765 108.533 41.3675C108.552 41.3613 108.571 41.3554 108.591 41.35C108.616 41.3415 108.641 41.3338 108.667 41.3267C108.692 41.3202 108.717 41.3143 108.743 41.3092C108.764 41.3048 108.785 41.3009 108.807 41.2975C108.838 41.2926 108.869 41.2887 108.9 41.2858C108.914 41.2856 108.927 41.2856 108.941 41.2858C108.98 41.2843 109.019 41.2843 109.058 41.2858C109.067 41.2857 109.077 41.2857 109.087 41.2858C109.12 41.2886 109.153 41.2925 109.186 41.2975C109.205 41.2971 109.225 41.2971 109.244 41.2975C109.266 41.3028 109.287 41.3087 109.309 41.315C109.334 41.3202 109.359 41.326 109.384 41.3325C109.41 41.3396 109.435 41.3474 109.46 41.3558C109.48 41.3613 109.499 41.3671 109.519 41.3733C109.54 41.3825 109.562 41.3923 109.583 41.4025C109.608 41.4134 109.634 41.4251 109.659 41.4375C109.66 41.4375 109.662 41.4375 109.664 41.4375C109.672 41.4413 109.68 41.4452 109.688 41.4492C109.72 41.4674 109.751 41.4869 109.781 41.5075C109.797 41.515 109.812 41.5228 109.828 41.5308C109.852 41.5457 109.875 41.5613 109.898 41.5775C109.918 41.5964 109.937 41.6158 109.956 41.6358C109.97 41.6453 109.983 41.655 109.997 41.665C110.019 41.6857 110.04 41.7071 110.061 41.7292C110.075 41.7444 110.089 41.76 110.102 41.7758C110.114 41.7892 110.125 41.8028 110.137 41.8167C110.157 41.8432 110.177 41.8705 110.195 41.8983C110.201 41.908 110.207 41.9177 110.213 41.9275C110.233 41.9598 110.253 41.9929 110.271 42.0267C110.396 42.2578 110.513 42.4933 110.621 42.7325C110.703 42.9017 110.781 43.0728 110.854 43.2458C110.927 43.4268 110.995 43.6097 111.059 43.7942C111.121 43.9639 111.179 44.135 111.234 44.3075C111.287 44.4948 111.336 44.6835 111.379 44.8733C111.425 45.0551 111.466 45.2379 111.502 45.4217C111.538 45.6114 111.569 45.802 111.595 45.9933C111.635 46.2489 111.666 46.5057 111.689 46.7633C112.071 46.9791 112.445 47.2107 112.809 47.4575C113.026 47.6058 113.24 47.7594 113.45 47.9183C113.668 48.0743 113.882 48.2357 114.092 48.4025C114.29 48.5688 114.485 48.74 114.675 48.9158C114.876 49.0955 115.073 49.2803 115.264 49.47C115.448 49.6561 115.627 49.8467 115.801 50.0417C115.981 50.2375 116.156 50.4379 116.326 50.6425C116.491 50.8485 116.65 51.0586 116.804 51.2725C116.965 51.4863 117.121 51.7042 117.271 51.9258C117.413 52.1441 117.549 52.3659 117.679 52.5908C117.817 52.8208 117.95 53.0542 118.076 53.2908C118.197 53.5252 118.311 53.7625 118.42 54.0025C118.531 54.239 118.636 54.4783 118.735 54.72C118.835 54.9723 118.928 55.2271 119.015 55.4842C119.103 55.7271 119.185 55.9722 119.26 56.2192C119.333 56.4799 119.399 56.7425 119.459 57.0067C119.523 57.258 119.581 57.5108 119.634 57.765C119.679 58.0265 119.718 58.2891 119.75 58.5525C119.788 58.8161 119.819 59.0807 119.844 59.3458C119.883 59.7823 119.904 60.2201 119.908 60.6583V70.9133C119.906 71.3749 119.885 71.8362 119.844 72.2958C119.817 72.5533 119.784 72.81 119.744 73.0658C119.712 73.3293 119.673 73.5919 119.628 73.8533C119.576 74.1192 119.518 74.3838 119.453 74.6467C119.395 74.8951 119.33 75.1421 119.26 75.3875C119.181 75.6502 119.096 75.9109 119.004 76.1692C118.922 76.4104 118.834 76.6497 118.741 76.8867C118.636 77.1345 118.526 77.3795 118.409 77.6217C118.302 77.8577 118.189 78.0911 118.07 78.3217C117.944 78.5544 117.812 78.7839 117.674 79.01C117.543 79.2389 117.407 79.4646 117.265 79.6867C117.119 79.9023 116.967 80.1143 116.81 80.3225C116.652 80.5405 116.489 80.7545 116.32 80.9642C116.15 81.1669 115.975 81.3653 115.795 81.5592C115.625 81.752 115.45 81.9407 115.27 82.125C115.073 82.3169 114.871 82.5036 114.664 82.685C114.477 82.8587 114.286 83.028 114.092 83.1925C113.888 83.3551 113.68 83.5127 113.468 83.665C113.252 83.8281 113.032 83.9857 112.809 84.1375C112.592 84.279 112.372 84.4151 112.149 84.5458C111.919 84.684 111.686 84.8162 111.449 84.9425C111.221 85.059 110.989 85.1698 110.755 85.275C110.511 85.3941 110.264 85.5069 110.014 85.6133C109.777 85.7066 109.538 85.7941 109.297 85.8758C109.041 85.9681 108.782 86.0536 108.521 86.1325C108.266 86.2031 108.009 86.2673 107.751 86.325C107.5 86.3895 107.247 86.4479 106.993 86.5C106.722 86.546 106.449 86.5849 106.176 86.6167C105.926 86.6557 105.675 86.6888 105.424 86.7158C104.964 86.7574 104.503 86.7788 104.041 86.78H102.816C102.341 86.778 101.866 86.7547 101.393 86.71C101.131 86.6834 100.871 86.6504 100.611 86.6108C100.352 86.5784 100.093 86.5395 99.8352 86.4942C99.5692 86.4388 99.3047 86.3765 99.0419 86.3075C98.7935 86.2513 98.5465 86.189 98.301 86.1208C98.0441 86.0399 97.7893 85.9523 97.5369 85.8583C97.2897 85.775 97.0446 85.6855 96.8019 85.59C96.5581 85.4872 96.3169 85.3783 96.0785 85.2633C95.8405 85.1545 95.6051 85.0397 95.3727 84.9192C95.14 84.7927 94.9105 84.6605 94.6844 84.5225C94.4554 84.3901 94.2298 84.252 94.0077 84.1083C93.7959 83.9598 93.5878 83.8062 93.3835 83.6475C93.1656 83.4916 92.9516 83.3301 92.7419 83.1633C92.5392 82.9933 92.3408 82.8183 92.1469 82.6383C91.9519 82.4642 91.7613 82.2853 91.5752 82.1017C91.3874 81.908 91.2046 81.7096 91.0269 81.5067C90.851 81.3165 90.6799 81.122 90.5135 80.9233C90.3508 80.7154 90.1932 80.5034 90.041 80.2875C89.8802 80.0776 89.7245 79.8636 89.5744 79.6458C89.4367 79.4255 89.3044 79.2018 89.1777 78.975C89.1223 78.8822 89.0679 78.7889 89.0144 78.695V84.4117C89.0116 84.5538 89.0039 84.6959 88.9911 84.8375C88.9856 84.9349 88.9779 85.0322 88.9677 85.1292C88.9549 85.2346 88.9394 85.3396 88.9211 85.4442C88.9211 85.4481 88.9211 85.452 88.9211 85.4558C88.9053 85.5379 88.8877 85.6195 88.8685 85.7008C88.8413 85.8243 88.8102 85.9468 88.7752 86.0683C88.7569 86.1348 88.7375 86.2009 88.7169 86.2667C88.6745 86.3946 88.6278 86.5211 88.5769 86.6458C88.5545 86.7065 88.5312 86.7668 88.5069 86.8267C88.4475 86.9592 88.3832 87.0896 88.3144 87.2175C88.2806 87.2843 88.2456 87.3504 88.2094 87.4158C88.1626 87.4947 88.1139 87.5725 88.0635 87.6492C88.0039 87.7423 87.9416 87.8337 87.8769 87.9233C87.8241 87.9965 87.7696 88.0685 87.7135 88.1392C87.6496 88.2226 87.5835 88.3043 87.5152 88.3842C87.449 88.4598 87.3809 88.5337 87.3111 88.6058C87.2409 88.6776 87.1689 88.7477 87.0952 88.8158C87.0191 88.8839 86.9413 88.9501 86.8619 89.0142C86.7894 89.0762 86.7155 89.1365 86.6402 89.195C86.5563 89.2595 86.4707 89.3217 86.3835 89.3817C86.3051 89.4361 86.2253 89.4886 86.1444 89.5392C86.0562 89.592 85.9668 89.6426 85.876 89.6908C85.7897 89.7397 85.7022 89.7863 85.6135 89.8308C85.5231 89.872 85.4317 89.9109 85.3394 89.9475C85.2432 89.9889 85.1459 90.0278 85.0477 90.0642C84.9571 90.0975 84.8657 90.1286 84.7735 90.1575C84.679 90.1871 84.5836 90.2143 84.4877 90.2392C84.3872 90.2651 84.2861 90.2885 84.1844 90.3092C84.0876 90.3291 83.9903 90.3466 83.8927 90.3617C83.7919 90.3759 83.6908 90.3876 83.5894 90.3967C83.4943 90.4067 83.399 90.4145 83.3036 90.42C83.2005 90.4227 83.0974 90.4227 82.9944 90.42C82.8933 90.4226 82.7921 90.4226 82.691 90.42C82.5937 90.4146 82.4964 90.4068 82.3994 90.3967C82.2999 90.3875 82.2007 90.3758 82.1019 90.3617C82.0003 90.3448 81.8991 90.3254 81.7985 90.3033C81.7008 90.2844 81.6036 90.263 81.5069 90.2392C81.409 90.2144 81.3117 90.1872 81.2152 90.1575C81.1231 90.1286 81.0317 90.0975 80.941 90.0642C80.8428 90.0278 80.7456 89.9889 80.6494 89.9475C80.559 89.9108 80.4695 89.8719 80.381 89.8308C80.2904 89.7864 80.201 89.7397 80.1127 89.6908C80.022 89.6426 79.9325 89.592 79.8444 89.5392C79.7654 89.4885 79.6876 89.436 79.611 89.3817C79.5219 89.3218 79.4344 89.2596 79.3485 89.195C79.2732 89.1365 79.1993 89.0762 79.1269 89.0142C79.0474 88.9501 78.9696 88.8839 78.8935 88.8158C78.8218 88.7476 78.7518 88.6776 78.6835 88.6058C78.6137 88.5337 78.5456 88.4598 78.4794 88.3842C78.4092 88.3043 78.3411 88.2226 78.2752 88.1392C78.2192 88.0685 78.1647 87.9965 78.1119 87.9233C78.0471 87.8337 77.9849 87.7423 77.9252 87.6492C77.8892 87.5914 77.8542 87.5331 77.8202 87.4742C77.7228 87.3094 77.6332 87.14 77.5519 86.9667C77.546 86.955 77.5402 86.9434 77.5344 86.9317C77.4611 86.7713 77.395 86.6078 77.3361 86.4417C77.3261 86.4126 77.3164 86.3834 77.3069 86.3542C77.2589 86.2139 77.2161 86.0718 77.1786 85.9283C77.162 85.8664 77.1464 85.8041 77.1319 85.7417C77.107 85.6257 77.0856 85.5089 77.0677 85.3917C77.0523 85.3084 77.0387 85.2247 77.0269 85.1408C77.02 85.0748 77.0141 85.0087 77.0094 84.9425C77.0051 84.9037 77.0012 84.8648 76.9977 84.8258C76.9977 84.822 76.9977 84.8181 76.9977 84.8142C76.9875 84.6822 76.9817 84.5499 76.9802 84.4175V78.7067C76.9305 78.7966 76.88 78.8861 76.8286 78.975C76.6981 79.2039 76.5619 79.4295 76.4202 79.6517C76.2756 79.8633 76.1258 80.0714 75.9711 80.2758C75.8134 80.4998 75.6501 80.7196 75.4811 80.935C75.3184 81.1276 75.1511 81.3163 74.9794 81.5008C74.7999 81.7078 74.6152 81.9101 74.4252 82.1075C74.2353 82.2912 74.0408 82.4702 73.8419 82.6442C73.6518 82.824 73.4573 82.999 73.2585 83.1692C73.0488 83.336 72.8348 83.4974 72.6169 83.6533C72.4107 83.8121 72.2006 83.9658 71.9869 84.1142C71.7686 84.2557 71.5469 84.3919 71.3219 84.5225C71.092 84.6626 70.8586 84.7968 70.6219 84.925C70.3914 85.0435 70.158 85.1563 69.9219 85.2633C69.6835 85.3783 69.4424 85.4872 69.1985 85.59C68.9501 85.6877 68.6992 85.7791 68.446 85.8642C68.1993 85.9559 67.9504 86.0415 67.6994 86.1208C67.454 86.189 67.207 86.2513 66.9585 86.3075C66.6938 86.3766 66.4273 86.4389 66.1594 86.4942C65.9076 86.5392 65.6547 86.5781 65.401 86.6108C65.1355 86.6507 64.8691 86.6837 64.6019 86.71C64.1268 86.7549 63.6499 86.7782 63.1727 86.78H61.9477C61.4861 86.7768 61.0248 86.7535 60.5652 86.71C60.3117 86.685 60.0589 86.6539 59.8069 86.6167C59.5337 86.5849 59.2614 86.546 58.9902 86.5C58.74 86.4477 58.491 86.3894 58.2435 86.325C57.9834 86.2674 57.7247 86.2032 57.4677 86.1325C57.2089 86.0535 56.9521 85.968 56.6977 85.8758C56.4565 85.7941 56.2172 85.7066 55.9802 85.6133C55.7285 85.507 55.4795 85.3942 55.2335 85.275C54.9975 85.1699 54.7641 85.059 54.5336 84.9425C54.2988 84.8142 54.0673 84.68 53.8394 84.54C53.6164 84.4112 53.3966 84.277 53.1802 84.1375C52.9566 83.9876 52.7368 83.832 52.521 83.6708C52.311 83.5165 52.1049 83.357 51.9027 83.1925C51.7061 83.028 51.5136 82.8588 51.3252 82.685C51.1201 82.5036 50.9198 82.3168 50.7244 82.125C50.5448 81.9407 50.3698 81.752 50.1994 81.5592C50.0194 81.3653 49.8444 81.1669 49.6744 80.9642C49.5056 80.7545 49.3422 80.5405 49.1844 80.3225C49.0275 80.1143 48.8758 79.9023 48.7294 79.6867C48.5857 79.4646 48.4476 79.239 48.3152 79.01C48.1773 78.7839 48.045 78.5544 47.9186 78.3217C47.8001 78.0911 47.6872 77.8577 47.5802 77.6217C47.4651 77.3795 47.3562 77.1344 47.2536 76.8867C47.1602 76.6477 47.0727 76.4065 46.9911 76.1633C46.8969 75.907 46.8093 75.6483 46.7285 75.3875C46.6604 75.1421 46.5981 74.8951 46.5419 74.6467C46.4768 74.3838 46.4184 74.1192 46.3669 73.8533C46.3214 73.5919 46.2825 73.3293 46.2502 73.0658C46.2109 72.81 46.1778 72.5533 46.1511 72.2958C46.1074 71.8343 46.0841 71.3711 46.0811 70.9075V60.6583C46.0859 60.2162 46.1093 59.7744 46.1511 59.3342C46.1756 59.0709 46.2067 58.8084 46.2444 58.5467C46.277 58.2891 46.3159 58.0323 46.361 57.7767C46.4126 57.5108 46.471 57.2463 46.536 56.9833C46.5978 56.7289 46.6659 56.4761 46.7402 56.225C46.8156 55.9722 46.8973 55.7213 46.9852 55.4725C47.0704 55.2214 47.1618 54.9724 47.2594 54.7258C47.3621 54.4781 47.471 54.233 47.586 53.9908C47.6932 53.7567 47.806 53.5253 47.9244 53.2967C48.0543 53.054 48.1904 52.8148 48.3327 52.5792C48.4617 52.3602 48.5959 52.1443 48.7352 51.9317C48.887 51.706 49.0445 51.4843 49.2077 51.2667C49.3582 51.0568 49.5138 50.8506 49.6744 50.6483C49.8462 50.4436 50.0232 50.2433 50.2052 50.0475C50.3811 49.8486 50.562 49.6541 50.7477 49.4642C50.932 49.2846 51.1207 49.1096 51.3135 48.9392C51.5149 48.753 51.7211 48.5721 51.9319 48.3967C52.1303 48.2363 52.3326 48.0807 52.5385 47.93C52.7562 47.7688 52.9779 47.6132 53.2036 47.4633C53.5671 47.2166 53.9408 46.985 54.3236 46.7692C54.3458 46.5096 54.3769 46.2508 54.4169 45.9933C54.4416 45.8099 54.4708 45.627 54.5044 45.445C54.5405 45.2573 54.5814 45.0706 54.6269 44.885C54.671 44.703 54.7196 44.5221 54.7727 44.3425C54.8264 44.1583 54.8848 43.9754 54.9477 43.7942C55.0094 43.6156 55.0755 43.4386 55.146 43.2633C55.2195 43.0884 55.2973 42.9153 55.3794 42.7442C55.4844 42.511 55.5972 42.2814 55.7177 42.0558C55.7357 42.02 55.7552 41.985 55.7761 41.9508C55.7837 41.941 55.7915 41.9313 55.7994 41.9217C55.818 41.8958 55.8374 41.8705 55.8577 41.8458C55.8691 41.832 55.8808 41.8184 55.8927 41.805C55.906 41.7892 55.9196 41.7736 55.9336 41.7583C55.9524 41.7364 55.9718 41.715 55.9919 41.6942C56.0053 41.6823 56.0189 41.6706 56.0327 41.6592C56.0536 41.6411 56.075 41.6236 56.0969 41.6067C56.1198 41.5904 56.1431 41.5749 56.1669 41.56C56.1823 41.55 56.1978 41.5403 56.2136 41.5308C56.244 41.5122 56.2751 41.4947 56.3069 41.4783C56.3185 41.4723 56.3301 41.4665 56.3419 41.4608C56.3668 41.4484 56.3921 41.4368 56.4177 41.4258C56.4389 41.4156 56.4603 41.4059 56.4819 41.3967C56.5012 41.3904 56.5207 41.3846 56.5402 41.3792C56.5653 41.3707 56.5906 41.3629 56.6161 41.3558C56.6412 41.3493 56.6665 41.3435 56.6919 41.3383C56.7132 41.334 56.7346 41.3301 56.7561 41.3267C56.7755 41.3243 56.7949 41.3224 56.8144 41.3208C56.8473 41.3158 56.8804 41.3119 56.9135 41.3092C56.9252 41.309 56.9369 41.309 56.9485 41.3092C56.9855 41.3078 57.0225 41.3078 57.0594 41.3092C57.073 41.309 57.0866 41.309 57.1002 41.3092C57.1315 41.314 57.1626 41.3198 57.1936 41.3267C57.2131 41.3302 57.2325 41.3341 57.2519 41.3383C57.2793 41.3434 57.3065 41.3492 57.3335 41.3558C57.3571 41.363 57.3804 41.3708 57.4035 41.3792C57.4251 41.3845 57.4465 41.3903 57.4677 41.3967C57.4933 41.4057 57.5186 41.4154 57.5436 41.4258C57.5632 41.4351 57.5827 41.4448 57.6019 41.455C57.6215 41.4643 57.641 41.474 57.6602 41.4842C57.6839 41.4952 57.7072 41.5069 57.7302 41.5192C57.748 41.5305 57.7655 41.5421 57.7827 41.5542C57.8065 41.569 57.8298 41.5846 57.8527 41.6008C57.8665 41.6103 57.8801 41.62 57.8936 41.63C57.9175 41.6487 57.9408 41.6682 57.9636 41.6883C57.9835 41.7072 58.003 41.7267 58.0219 41.7467C58.0419 41.7656 58.0613 41.785 58.0802 41.805V41.7758L60.8277 44.8267C60.8472 44.8266 60.8666 44.8266 60.886 44.8267C60.8721 44.5255 60.8702 44.2239 60.8802 43.9225C60.8866 43.722 60.8983 43.5216 60.9152 43.3217C60.9284 43.1404 60.9459 42.9596 60.9677 42.7792C60.9921 42.5899 61.0213 42.4012 61.0552 42.2133C61.0895 42.0277 61.1284 41.8429 61.1719 41.6592C61.214 41.4753 61.2607 41.2924 61.3119 41.1108C61.3656 40.9266 61.4239 40.7438 61.4869 40.5625C61.5485 40.382 61.6146 40.203 61.6852 40.0258C61.7511 39.855 61.8211 39.6858 61.8952 39.5183C62.0201 39.2368 62.1563 38.9605 62.3035 38.69C62.7994 37.9025 63.5519 37.7392 64.1702 38.2058C64.2577 38.27 64.3452 38.3517 64.4269 38.4392L74.8102 49.7558V49.7442C74.9833 49.9231 75.1623 50.0963 75.3469 50.2633C75.4818 50.3912 75.6199 50.5157 75.761 50.6367C75.9059 50.757 76.0537 50.8737 76.2044 50.9867C76.3532 51.1013 76.505 51.2122 76.6594 51.3192C76.8125 51.4202 76.9681 51.5174 77.126 51.6108C77.2869 51.7122 77.4503 51.8094 77.616 51.9025C77.7792 51.9902 77.9446 52.0738 78.1119 52.1533C78.2791 52.2353 78.4483 52.3131 78.6194 52.3867C78.7964 52.4613 78.9754 52.5313 79.156 52.5967C79.3277 52.6592 79.5008 52.7176 79.6752 52.7717C79.8586 52.8269 80.0434 52.8775 80.2294 52.9233C80.4053 52.9704 80.5823 53.0132 80.7602 53.0517C80.948 53.0876 81.1367 53.1187 81.326 53.145C81.5082 53.1748 81.691 53.2001 81.8744 53.2208C82.0607 53.2372 82.2475 53.2488 82.4344 53.2558C82.6209 53.2663 82.8076 53.2722 82.9944 53.2733C83.1831 53.2723 83.3718 53.2664 83.5602 53.2558C83.7471 53.2488 83.9339 53.2372 84.1202 53.2208C84.3036 53.2001 84.4864 53.1748 84.6685 53.145C84.8579 53.1187 85.0466 53.0876 85.2344 53.0517C85.4104 53.0131 85.5854 52.9703 85.7594 52.9233C85.9473 52.8795 86.134 52.8309 86.3194 52.7775C86.4939 52.7215 86.667 52.6612 86.8385 52.5967C87.0192 52.5313 87.1982 52.4613 87.3752 52.3867C87.5463 52.3131 87.7155 52.2353 87.8827 52.1533C88.05 52.0738 88.2154 51.9902 88.3785 51.9025C88.5443 51.8094 88.7077 51.7122 88.8685 51.6108C89.0265 51.5174 89.1821 51.4202 89.3352 51.3192C89.4897 51.2102 89.6414 51.0974 89.7902 50.9808C89.9389 50.8698 90.0847 50.755 90.2277 50.6367C90.3708 50.5158 90.5108 50.3913 90.6477 50.2633C90.8323 50.0963 91.0113 49.9231 91.1844 49.7442V49.75L101.568 38.4333C101.645 38.3471 101.731 38.2689 101.824 38.2C102.005 38.0582 102.221 37.9694 102.449 37.9433L102.454 37.9492ZM102.571 38.9292C97.8285 43.2575 94.2935 48.9275 89.0085 52.6842C83.5719 55.9333 76.1169 53.8158 72.541 48.7758C69.5544 45.5092 66.6669 41.9508 63.4235 39.0517C61.5336 40.5567 62.4669 43.3975 61.4869 45.34C60.2736 46.5417 59.0369 44.2842 58.4185 43.4967C57.9285 42.505 56.5694 41.8458 56.1669 43.2167C55.216 44.8383 55.9336 47.5333 53.7402 48.2158C48.3794 51.6575 46.291 58.465 47.0377 64.5025C46.8627 70.2308 46.6527 76.8458 51.1094 81.18C57.5611 88.0633 70.301 87.2933 75.4577 79.3133C75.796 78.4967 76.3036 77.5575 76.9802 76.8633V74.4133C76.9802 74.4017 76.9802 74.39 76.9802 74.3783L74.9385 74.0342C74.8621 74.0199 74.7941 73.9769 74.7485 73.9139C74.7029 73.8509 74.6833 73.7729 74.6936 73.6958C75.0379 71.7498 76.0547 69.9864 77.5665 68.7135C79.0782 67.4406 80.9889 66.7389 82.9652 66.7308C84.9535 66.7224 86.8809 67.4167 88.4071 68.691C89.9334 69.9654 90.9604 71.7379 91.3069 73.6958C91.317 73.7737 91.2965 73.8525 91.2498 73.9156C91.203 73.9787 91.1335 74.0212 91.056 74.0342L89.0144 74.3842C89.0144 74.3861 89.0144 74.3881 89.0144 74.39V76.6067L89.0552 76.6125C92.4619 85.5608 104.969 88.67 112.488 83.1925C114.799 81.541 116.62 79.2938 117.756 76.6899C118.892 74.086 119.301 71.2228 118.939 68.405C119.021 62.3792 119.698 55.3908 115.13 50.66C113.87 49.085 111.607 48.3325 110.685 46.5942C110.364 45.1358 110.446 43.1642 109.017 42.3008C107.209 43.0533 106.794 45.5442 104.77 45.9992C103.604 43.7825 104.449 40.7667 102.571 38.9233V38.9292ZM62.1285 50.73C65.214 50.7316 68.1725 51.9583 70.3537 54.1406C72.5349 56.3229 73.7602 59.2821 73.7602 62.3675V69.3675C73.7171 71.2316 73.227 73.0581 72.331 74.6933C70.7567 74.03 69.1718 73.3922 67.5769 72.78C67.6469 72.7099 67.7149 72.6379 67.781 72.5642C67.8126 72.5296 67.8437 72.4946 67.8744 72.4592C67.9721 72.3501 68.0656 72.2373 68.1544 72.1208C68.1781 72.088 68.2014 72.055 68.2244 72.0217C68.3066 71.908 68.3844 71.7912 68.4577 71.6717C68.4835 71.6331 68.5088 71.5942 68.5336 71.555C68.6002 71.4368 68.6624 71.3161 68.7202 71.1933C68.7422 71.1508 68.7635 71.1081 68.7844 71.065C68.835 70.95 68.8817 70.8332 68.9244 70.715C68.9488 70.6551 68.9721 70.5949 68.9944 70.5342C69.031 70.4225 69.0641 70.3096 69.0936 70.1958C69.1122 70.132 69.1297 70.0678 69.146 70.0033C69.1685 69.8989 69.188 69.7939 69.2044 69.6883C69.2199 69.6051 69.2335 69.5214 69.2452 69.4375C69.2657 69.2787 69.2794 69.1191 69.286 68.9592V62.9333C69.2848 62.7775 69.2771 62.6218 69.2627 62.4667C69.2553 62.3751 69.2455 62.2836 69.2336 62.1925C69.2222 62.1008 69.2086 62.0094 69.1927 61.9183C69.1756 61.8265 69.1561 61.7351 69.1344 61.6442C69.1132 61.5561 69.0899 61.4686 69.0644 61.3817C69.0357 61.2895 69.0045 61.1981 68.9711 61.1075C68.9438 61.0252 68.9146 60.9435 68.8835 60.8625C68.8471 60.7701 68.8082 60.6787 68.7669 60.5883C68.7298 60.5097 68.6909 60.4319 68.6502 60.355C68.6037 60.2721 68.5551 60.1904 68.5044 60.11C68.4596 60.0311 68.413 59.9533 68.3644 59.8767C68.3135 59.8054 68.261 59.7354 68.2069 59.6667C68.1505 59.5893 68.0922 59.5135 68.0319 59.4392C67.9751 59.3717 67.9168 59.3055 67.8569 59.2408C67.7945 59.1692 67.7303 59.0992 67.6644 59.0308C67.5979 58.9669 67.5298 58.9047 67.4602 58.8442C67.3937 58.7822 67.3256 58.7219 67.256 58.6633C67.1836 58.6051 67.1097 58.5487 67.0344 58.4942C66.9599 58.4378 66.8841 58.3834 66.8069 58.3308C66.7303 58.2803 66.6525 58.2317 66.5735 58.185C66.4969 58.1384 66.4191 58.0937 66.3402 58.0508C66.2576 58.0099 66.174 57.971 66.0894 57.9342C66.001 57.8929 65.9115 57.854 65.8211 57.8175C65.7383 57.7824 65.6546 57.7494 65.5702 57.7183C65.4873 57.6891 65.4036 57.6619 65.3194 57.6367C65.2247 57.6108 65.1294 57.5875 65.0336 57.5667C64.9446 57.545 64.8551 57.5256 64.7652 57.5083C64.6781 57.4907 64.5906 57.4751 64.5027 57.4617C64.4097 57.4476 64.3163 57.436 64.2227 57.4267C64.0676 57.4123 63.9119 57.4046 63.7561 57.4033C63.6392 57.4075 63.5224 57.4152 63.406 57.4267C63.3086 57.4339 63.2113 57.4436 63.1144 57.4558C63.0305 57.4676 62.9468 57.4812 62.8636 57.4967C62.7639 57.5134 62.6647 57.5329 62.566 57.555C62.478 57.5762 62.3905 57.5996 62.3035 57.625C62.2115 57.6499 62.1201 57.6771 62.0294 57.7067C61.9391 57.7394 61.8496 57.7744 61.7611 57.8117C61.6527 57.8531 61.5457 57.8978 61.4402 57.9458C61.5216 58.0199 61.5995 58.0978 61.6735 58.1792C61.7176 58.2247 61.7604 58.2714 61.8019 58.3192C61.8358 58.3573 61.8689 58.3962 61.9011 58.4358C61.9373 58.4835 61.9723 58.5322 62.0061 58.5817C62.0404 58.6314 62.0735 58.6819 62.1052 58.7333C62.1315 58.7775 62.1568 58.8222 62.181 58.8675C62.2136 58.9211 62.2447 58.9756 62.2744 59.0308C62.297 59.0809 62.3184 59.1315 62.3386 59.1825C62.3654 59.2401 62.3907 59.2985 62.4144 59.3575C62.431 59.4058 62.4466 59.4544 62.461 59.5033C62.4821 59.5631 62.5016 59.6234 62.5194 59.6842C62.5345 59.7421 62.5481 59.8005 62.5602 59.8592C62.5733 59.9153 62.5849 59.9717 62.5952 60.0283C62.6052 60.1 62.613 60.172 62.6185 60.2442C62.6232 60.2849 62.627 60.3258 62.6302 60.3667C62.6329 60.4464 62.6329 60.5261 62.6302 60.6058C62.6309 60.6447 62.6309 60.6836 62.6302 60.7225C62.6278 60.7809 62.6239 60.8393 62.6185 60.8975C62.6143 60.9579 62.6084 61.0182 62.6011 61.0783C62.5942 61.1252 62.5864 61.1718 62.5777 61.2183C62.566 61.2848 62.5524 61.351 62.5369 61.4167C62.5226 61.4715 62.5071 61.5259 62.4902 61.58C62.4723 61.6388 62.4529 61.6972 62.4319 61.755C62.4101 61.814 62.3868 61.8723 62.3619 61.93C62.3435 61.9771 62.324 62.0238 62.3035 62.07C62.2741 62.1292 62.243 62.1876 62.2102 62.245C62.186 62.2922 62.1607 62.3389 62.1344 62.385C62.0973 62.4445 62.0583 62.5029 62.0177 62.56C61.995 62.5954 61.9717 62.6304 61.9477 62.665C61.8993 62.729 61.8487 62.7912 61.796 62.8517C61.7713 62.8813 61.746 62.9104 61.7202 62.9392C61.6823 62.979 61.6433 63.0179 61.6035 63.0558C61.5582 63.1038 61.5115 63.1505 61.4635 63.1958C61.4253 63.2258 61.3864 63.255 61.3469 63.2833C61.2994 63.3255 61.2508 63.3663 61.201 63.4058C61.1495 63.4423 61.097 63.4773 61.0435 63.5108C60.9976 63.5411 60.9509 63.5703 60.9035 63.5983C60.8593 63.6226 60.8146 63.646 60.7694 63.6683C60.7119 63.7011 60.6536 63.7322 60.5944 63.7617C60.5291 63.789 60.4629 63.8142 60.396 63.8375C60.3574 63.8538 60.3185 63.8693 60.2794 63.8842C60.2062 63.908 60.1323 63.9294 60.0577 63.9483C60.019 63.9607 59.9801 63.9724 59.941 63.9833C59.8753 63.9969 59.8091 64.0086 59.7427 64.0183C59.6924 64.0292 59.6418 64.0389 59.591 64.0475C59.5135 64.0559 59.4357 64.0618 59.3577 64.065C59.3228 64.0694 59.2878 64.0733 59.2527 64.0767C59.1847 64.0787 59.1166 64.0787 59.0485 64.0767C58.9941 64.0779 58.9397 64.0779 58.8852 64.0767C58.8247 64.0685 58.7644 64.0588 58.7044 64.0475C58.6537 64.0428 58.6031 64.0369 58.5527 64.03C58.4428 64.0119 58.3338 63.9885 58.226 63.96V68.9708C58.2315 69.0644 58.2392 69.1577 58.2494 69.2508C58.259 69.3718 58.2726 69.4924 58.2902 69.6125C55.7233 68.8487 53.1228 68.2024 50.4969 67.6758V62.3792C50.4907 60.8487 50.7877 59.3321 51.3707 57.917C51.9537 56.5019 52.8112 55.2163 53.8937 54.1344C54.9762 53.0524 56.2623 52.1956 57.6777 51.6133C59.093 51.031 60.6097 50.7347 62.1402 50.7417L62.1285 50.73ZM103.872 50.73C105.401 50.7292 106.915 51.0297 108.327 51.6142C109.74 52.1987 111.023 53.0558 112.105 54.1365C113.186 55.2172 114.044 56.5004 114.629 57.9127C115.214 59.325 115.515 60.8388 115.515 62.3675V67.67C113.036 68.1658 110.44 68.8075 107.722 69.6125C107.74 69.4847 107.754 69.3563 107.763 69.2275C107.773 69.1383 107.78 69.0488 107.786 68.9592V62.9333C107.785 62.7756 107.777 62.6179 107.763 62.4608C107.753 62.3711 107.742 62.2817 107.728 62.1925C107.716 62.1008 107.703 62.0094 107.687 61.9183C107.67 61.8284 107.65 61.739 107.629 61.65C107.608 61.5561 107.584 61.4627 107.559 61.37C107.533 61.2897 107.506 61.2099 107.477 61.1308C107.444 61.0366 107.409 60.9432 107.372 60.8508C107.337 60.7663 107.3 60.6827 107.261 60.6C107.224 60.5174 107.185 60.4357 107.144 60.355C107.1 60.2761 107.053 60.1983 107.004 60.1217C106.958 60.0388 106.909 59.9571 106.859 59.8767C106.806 59.7995 106.752 59.7236 106.695 59.6492C106.642 59.5779 106.588 59.5079 106.532 59.4392C106.472 59.3656 106.409 59.2937 106.345 59.2233C106.285 59.1537 106.222 59.0857 106.159 59.0192C106.09 58.9532 106.02 58.889 105.949 58.8267C105.886 58.7668 105.822 58.7085 105.756 58.6517C105.68 58.5913 105.602 58.5329 105.523 58.4767C105.452 58.4244 105.38 58.3738 105.307 58.325C105.227 58.2723 105.145 58.2218 105.062 58.1733C104.985 58.1267 104.907 58.082 104.829 58.0392C104.748 57.9983 104.666 57.9594 104.584 57.9225C104.495 57.8813 104.406 57.8424 104.315 57.8058C104.238 57.773 104.16 57.7418 104.082 57.7125C103.989 57.6809 103.896 57.6517 103.802 57.625C103.713 57.5994 103.624 57.5761 103.534 57.555C103.443 57.5333 103.351 57.5138 103.259 57.4967C103.168 57.4808 103.077 57.4672 102.985 57.4558C102.898 57.4421 102.81 57.4304 102.723 57.4208C102.566 57.4063 102.408 57.3986 102.25 57.3975C102.139 57.402 102.028 57.4098 101.918 57.4208C101.83 57.4266 101.743 57.4343 101.655 57.4442C101.554 57.457 101.453 57.4725 101.352 57.4908C101.266 57.5044 101.18 57.52 101.095 57.5375C101.005 57.5586 100.916 57.582 100.827 57.6075C100.735 57.6324 100.643 57.6596 100.553 57.6892C100.468 57.7183 100.385 57.7494 100.302 57.7825C100.214 57.8153 100.126 57.8503 100.039 57.8875C99.9507 57.9299 99.8632 57.9747 99.7769 58.0217C99.6823 58.0657 99.5889 58.1124 99.4969 58.1617C99.579 58.2452 99.6569 58.3328 99.7302 58.4242C99.7992 58.5181 99.8634 58.6155 99.9227 58.7158C99.9861 58.814 100.044 58.9152 100.098 59.0192C100.15 59.1237 100.196 59.2308 100.238 59.34C100.278 59.449 100.313 59.56 100.343 59.6725C100.353 59.7209 100.363 59.7695 100.372 59.8183C100.387 59.884 100.401 59.9502 100.413 60.0167C100.425 60.098 100.435 60.1797 100.442 60.2617C100.446 60.2947 100.45 60.3277 100.454 60.3608C100.454 60.3628 100.454 60.3647 100.454 60.3667C100.459 60.4833 100.459 60.6001 100.454 60.7167C100.45 60.8338 100.44 60.9506 100.424 61.0667C100.417 61.1096 100.41 61.1524 100.401 61.195C100.39 61.2654 100.376 61.3354 100.36 61.405C100.333 61.5174 100.3 61.6284 100.261 61.7375C100.261 61.7394 100.261 61.7414 100.261 61.7433C100.222 61.8524 100.177 61.9595 100.127 62.0642C100.078 62.1699 100.023 62.2731 99.9635 62.3733C99.9043 62.4737 99.84 62.5711 99.771 62.665C99.6998 62.7582 99.6238 62.8478 99.5435 62.9333C99.466 63.019 99.3842 63.1008 99.2985 63.1783C99.2128 63.2566 99.1233 63.3306 99.0302 63.4C98.9363 63.469 98.8389 63.5332 98.7385 63.5925C98.7366 63.5925 98.7347 63.5925 98.7327 63.5925C98.6323 63.6501 98.5291 63.7027 98.4235 63.75C98.3189 63.8 98.2118 63.8448 98.1027 63.8842C97.9916 63.9209 97.8786 63.9521 97.7644 63.9775C97.7025 63.9909 97.6402 64.0025 97.5777 64.0125C97.4102 64.0443 97.2406 64.0638 97.0702 64.0708C96.9536 64.0767 96.8368 64.0767 96.7202 64.0708V68.9592C96.7266 69.123 96.7402 69.2865 96.761 69.4492C96.7728 69.5311 96.7864 69.6128 96.8019 69.6942C96.8183 69.7997 96.8377 69.9048 96.8602 70.0092C96.8786 70.0717 96.898 70.134 96.9185 70.1958C96.9458 70.3135 96.977 70.4302 97.0119 70.5458C97.0323 70.6026 97.0537 70.659 97.076 70.715C97.1207 70.8333 97.1693 70.95 97.2219 71.065C97.2408 71.108 97.2602 71.1508 97.2802 71.1933C97.3417 71.3183 97.4078 71.4409 97.4785 71.5608C97.4995 71.5961 97.5209 71.6311 97.5427 71.6658C97.6176 71.7915 97.6973 71.914 97.7819 72.0333C97.8011 72.0568 97.8206 72.0802 97.8402 72.1033C97.936 72.2301 98.0372 72.3527 98.1435 72.4708C98.159 72.4865 98.1746 72.502 98.1902 72.5175C98.2708 72.6097 98.3545 72.6992 98.441 72.7858C96.8777 73.3867 95.291 74.0283 93.6869 74.7108C92.7841 73.0714 92.2899 71.2385 92.246 69.3675V62.3675C92.2391 60.8373 92.5354 59.3209 93.1177 57.9058C93.7001 56.4908 94.5571 55.2051 95.6391 54.1231C96.7211 53.041 98.0068 52.1841 99.4219 51.6017C100.837 51.0193 102.353 50.7231 103.884 50.73H103.872ZM83.2044 67.3667C82.9827 67.3667 82.7552 67.3667 82.5335 67.3842C80.8491 67.4981 79.2458 68.1504 77.9603 69.2448C76.6747 70.3392 75.7749 71.8178 75.3936 73.4625L82.9827 74.6175L86.996 73.9875L90.5135 73.1825C89.7552 69.8867 86.5469 67.4483 83.2044 67.3667ZM88.2211 74.2733C87.731 74.2442 88.1685 75.1017 88.081 75.5217C88.1394 78.1642 88.2269 80.8417 87.941 83.4667C87.1069 86.6983 82.7377 88.3433 80.066 86.2492C78.1002 84.8783 77.5869 82.2592 77.9019 80.0192C77.896 78.1525 77.7852 76.28 77.9836 74.4192C77.0444 73.9175 77.6335 75.0375 77.4819 75.5508C77.5402 79.1033 77.196 82.7025 77.7444 86.22C78.8294 89.7083 83.7352 91.2075 86.4944 88.7283C88.3027 87.27 88.8219 84.7325 88.536 82.5042C88.5127 79.7858 88.606 77.0617 88.4835 74.3433C88.3987 74.3051 88.308 74.2814 88.2152 74.2733H88.2211ZM87.3811 74.5417C87.2508 74.5561 87.122 74.5814 86.996 74.6175C86.781 74.6957 86.563 74.7657 86.3427 74.8275L86.1677 74.8742C86.0038 74.9186 85.8384 74.9575 85.6719 74.9908L85.5086 75.0258C84.9891 75.1266 84.4624 75.1851 83.9335 75.2008L83.7294 75.2125C83.4416 75.2189 83.1538 75.2189 82.8661 75.2125H82.7727C82.4395 75.1982 82.1068 75.1729 81.7752 75.1367C81.7402 75.1367 81.7052 75.1367 81.676 75.125C81.1319 75.0639 80.5892 74.99 80.0486 74.9033L79.6285 74.845L78.5669 74.6525C78.4306 75.074 78.3617 75.5125 78.3627 75.9533V82.2942C78.3755 83.4589 78.8683 84.5724 79.7353 85.3958C80.6023 86.2192 81.7745 86.6868 83.0002 86.6983C83.609 86.6983 84.2118 86.5844 84.7741 86.363C85.3364 86.1416 85.8473 85.8171 86.2775 85.408C86.7076 84.999 87.0487 84.5134 87.2811 83.9791C87.5135 83.4448 87.6327 82.8723 87.6319 82.2942V75.9417C87.6306 75.4593 87.5458 74.9804 87.3811 74.5242V74.5417ZM87.6144 82.5158C87.6062 82.5841 87.5965 82.6522 87.5852 82.72C87.5945 82.6521 87.6023 82.5841 87.6086 82.5158H87.6144ZM87.5385 82.9942C87.5261 83.0528 87.5125 83.1111 87.4977 83.1692C87.5125 83.1111 87.5261 83.0528 87.5385 82.9942ZM87.4219 83.4317C87.4036 83.4904 87.3842 83.5487 87.3635 83.6067C87.3842 83.5487 87.4036 83.4904 87.4219 83.4317ZM87.2585 83.8925C87.2398 83.9356 87.2203 83.9784 87.2002 84.0208C87.2203 83.9784 87.2398 83.9356 87.2585 83.8925ZM87.0544 84.3067C87.0316 84.3459 87.0083 84.3848 86.9844 84.4233C87.0083 84.3848 87.0316 84.3459 87.0544 84.3067ZM86.7977 84.715C86.7786 84.7424 86.7591 84.7697 86.7394 84.7967C86.7591 84.7697 86.7786 84.7424 86.7977 84.715ZM86.5061 85.0883C86.4868 85.108 86.4673 85.1274 86.4477 85.1467C86.4673 85.1274 86.4868 85.108 86.5061 85.0883ZM86.1969 85.415C86.1853 85.4267 86.1736 85.4384 86.1619 85.45C86.1736 85.4384 86.1853 85.4267 86.1969 85.415ZM68.3119 100.698C68.3391 100.697 68.3663 100.697 68.3936 100.698H79.0277C79.1584 100.693 79.2886 100.718 79.4073 100.773C79.526 100.828 79.6297 100.911 79.7097 101.015C79.7898 101.118 79.8438 101.239 79.8672 101.368C79.8907 101.497 79.8828 101.629 79.8444 101.754C79.0277 104.204 76.5019 105.89 73.6844 105.908C72.3597 105.942 71.0577 105.559 69.962 104.814C68.8662 104.069 68.032 102.999 67.5769 101.754C67.5282 101.635 67.51 101.506 67.5239 101.379C67.5378 101.251 67.5833 101.129 67.6563 101.024C67.7293 100.918 67.8275 100.833 67.942 100.775C68.0565 100.717 68.1837 100.689 68.3119 100.693V100.698ZM86.996 100.698C87.0058 100.698 87.0155 100.698 87.0252 100.698H97.6652C97.7946 100.693 97.9234 100.719 98.0409 100.773C98.1584 100.828 98.2612 100.909 98.341 101.011C98.4208 101.113 98.4752 101.233 98.4996 101.36C98.5241 101.487 98.5181 101.618 98.4819 101.743C97.6652 104.181 95.1452 105.884 92.2985 105.884C90.9806 105.915 89.6859 105.534 88.5951 104.793C87.5044 104.053 86.6721 102.99 86.2144 101.754C86.1829 101.633 86.1791 101.506 86.2032 101.382C86.2273 101.259 86.2788 101.143 86.3538 101.042C86.4288 100.941 86.5254 100.859 86.6365 100.8C86.7477 100.742 86.8706 100.709 86.996 100.704V100.698ZM77.6627 109.728C77.6724 109.728 77.6822 109.728 77.6919 109.728H88.3319C88.4628 109.723 88.593 109.75 88.7115 109.805C88.83 109.861 88.9334 109.945 89.0129 110.049C89.0924 110.153 89.1457 110.274 89.1683 110.404C89.1909 110.533 89.1821 110.665 89.1427 110.79C88.3552 113.258 85.8294 114.938 82.9827 114.938C81.6597 114.971 80.3596 114.589 79.2651 113.845C78.1706 113.101 77.3368 112.032 76.8811 110.79C76.8424 110.667 76.8333 110.537 76.8547 110.409C76.8761 110.282 76.9273 110.162 77.0042 110.058C77.081 109.955 77.1812 109.871 77.2967 109.814C77.4122 109.756 77.5396 109.727 77.6685 109.728H77.6627ZM38.9585 119.377C38.2328 119.395 37.5182 119.559 36.8569 119.859C36.1956 120.158 35.6011 120.588 35.1086 121.121V121.109C34.1248 122.171 33.5984 123.576 33.6432 125.023C33.688 126.469 34.3003 127.84 35.3477 128.838L41.6944 134.788C42.7587 135.741 44.1534 136.24 45.5805 136.178C47.0076 136.116 48.3539 135.499 49.3318 134.457C50.3097 133.416 50.8418 132.034 50.8142 130.606C50.7867 129.178 50.2017 127.817 49.1844 126.814L42.8377 120.87C42.3209 120.379 41.7122 119.994 41.0467 119.738C40.3811 119.481 39.6715 119.359 38.9585 119.377ZM127.129 119.377C126.404 119.349 125.68 119.466 125.001 119.723C124.321 119.979 123.7 120.369 123.174 120.87L116.822 126.814C115.764 127.808 115.144 129.182 115.098 130.633C115.053 132.084 115.586 133.494 116.58 134.552C117.574 135.61 118.947 136.23 120.399 136.276C121.85 136.321 123.259 135.788 124.318 134.794L130.659 128.85C131.707 127.852 132.32 126.482 132.366 125.036C132.412 123.589 131.887 122.183 130.904 121.121C130.42 120.596 129.838 120.173 129.19 119.873C128.542 119.574 127.842 119.405 127.129 119.377Z" fill="white"/>
</svg>
