<svg width="166" height="166" viewBox="0 0 166 166" fill="none" xmlns="http://www.w3.org/2000/svg">
<path d="M66.1533 61.1949L47.825 104.922H35.8667L26.8483 70.0207C26.3 67.8741 25.8275 67.0866 24.1592 66.1824C21.4408 64.7066 16.9492 63.3241 13 62.4607L13.2683 61.1949H32.5183C33.7763 61.1936 34.9932 61.6421 35.9495 62.4594C36.9059 63.2766 37.5385 64.4088 37.7333 65.6516L42.4992 90.9566L54.2708 61.1949H66.1533ZM113.013 90.6474C113.059 79.1032 97.0525 78.4674 97.1633 73.3107C97.1983 71.7416 98.6917 70.0732 101.958 69.6474C105.787 69.2838 109.642 69.961 113.118 71.6074L115.101 62.3324C111.717 61.0604 108.134 60.4026 104.519 60.3899C93.3367 60.3899 85.4675 66.3399 85.3975 74.8507C85.3275 81.1449 91.015 84.6507 95.3025 86.7507C99.7125 88.8916 101.194 90.2682 101.171 92.1816C101.142 95.1216 97.6592 96.4107 94.4042 96.4632C88.7167 96.5507 85.4208 94.9291 82.7842 93.7041L80.7367 103.282C83.3792 104.496 88.2558 105.557 93.3133 105.604C105.196 105.604 112.972 99.7357 113.013 90.6474ZM142.535 104.922H153L143.871 61.1949H134.211C133.179 61.1853 132.167 61.4861 131.308 62.0582C130.449 62.6302 129.782 63.4472 129.392 64.4032L112.423 104.922H124.3L126.663 98.3882H141.176L142.535 104.922ZM129.917 89.4282L135.868 73.0074L139.298 89.4282H129.917ZM82.3175 61.1949L72.9667 104.922H61.65L71.0125 61.1949H82.3175Z" fill="white"/>
</svg>
