<svg width="166" height="166" viewBox="0 0 166 166" fill="none" xmlns="http://www.w3.org/2000/svg">
<path d="M48.3267 83.7701V55.0701H55.3267V72.7217C58.7683 68.6209 63.505 67.4367 68.1717 67.4367C75.9883 67.4367 84.6683 72.7101 84.6683 84.0909C84.6683 85.4501 84.5808 86.7567 84.3183 87.9876C85.7183 82.4284 91.75 80.3751 101.212 80.1476C104.187 80.0426 107.599 80.0426 110.312 80.0426V79.2551C110.312 74.0926 107.068 71.9984 101.387 71.9984C97.1867 71.9984 94.1242 73.7484 93.7742 76.7234H86.3367C87.13 69.1984 95.0867 67.2734 102.005 67.2734C108.212 67.2734 113.643 68.8484 116.093 73.2234L113.549 68.3234H121.774L133.762 92.3859L145.749 68.3176H153L131.3 110.93H123.448L129.69 99.0301L116.098 73.4801C116.857 74.9676 117.265 76.7176 117.265 78.9051V93.2551C117.265 95.2734 117.323 97.2801 117.498 99.1176H111C110.823 97.6366 110.734 96.1465 110.732 94.6551C107.214 98.9367 103.032 100.255 97.1983 100.255C88.565 100.255 83.945 95.7051 83.945 90.3676C83.945 89.4926 84.0325 88.7109 84.1608 88.0051C82.4108 95.2734 76.2275 100.173 68.02 100.173C62.945 100.173 58.1383 98.3359 55.1867 94.7484C55.1867 96.1484 55.0992 97.6301 54.9533 99.0301H48.07C48.1867 96.7551 48.3033 94.0426 48.3033 91.7676V85.6426H20.1283C20.5075 92.0301 24.9 95.7926 30.9375 95.7926C35.1258 95.7926 38.8417 94.0426 40.0842 90.3676H47.3175C45.9175 97.8926 37.9258 100.43 31.0425 100.43C18.5417 100.553 13 93.6284 13 84.3534C13 74.1217 18.7283 67.3784 31.1767 67.3784C41.0233 67.3784 48.2683 72.5467 48.3267 83.7467V83.7759V83.7701ZM101.626 84.8376C95.2383 85.0359 91.3008 86.1967 91.3008 90.3792C91.3008 93.0917 93.4008 96.0376 98.9133 96.0376C106.263 96.0376 110.201 92.0126 110.201 85.4559V84.6976C107.576 84.6976 104.426 84.7326 101.544 84.8259H101.614L101.626 84.8376ZM66.2758 95.7751C72.7508 95.7751 77.2192 91.0734 77.2192 83.9917C77.2192 76.9101 72.7392 72.2084 66.1767 72.2084C59.7017 72.2084 55.1517 76.9101 55.1517 83.9917C55.1517 91.0734 59.6142 95.7751 66.0892 95.7751H66.2642H66.2758ZM40.9008 81.1101C40.6442 74.5476 35.9192 72.0917 30.8383 72.0917C25.3317 72.0917 20.9567 74.8567 20.2508 81.1101H40.9008Z" fill="white"/>
</svg>
