<svg width="166" height="166" viewBox="0 0 166 166" fill="none" xmlns="http://www.w3.org/2000/svg">
<path d="M112.377 102.985H112.336C111.56 103.172 110.918 102.717 111.099 102.361C111.811 100.727 112.663 98.3941 112.814 97.7875C113.52 95.3549 113.258 93.6808 111.105 91.8841C109.822 90.8341 108.381 89.8308 107.08 88.9033C106.468 88.355 106.817 87.8241 107.01 87.6375C107.383 87.2641 107.85 86.955 108.212 86.675C109.262 85.8875 109.909 85.9925 110.86 86.0916C112.33 86.29 113.794 86.5058 115.258 86.7625C116.676 87.0541 116.968 86.535 117.312 85.5433L118.14 83.0641C118.648 81.6408 117.965 81.3258 116.915 81.3025L102.956 80.76C101.777 80.6841 101.305 81.04 100.873 81.3316C98.7733 82.8483 96.6733 84.3533 94.5675 85.8641C93.4767 86.5991 93.9433 87.1008 94.2175 87.6025L95.3958 89.5333C96.3408 91.0733 95.9792 91.4991 95.1567 92.3975C94.5267 93.0391 93.8383 93.6225 93.115 94.1416L92.8642 94.3166C90.7058 95.845 88.4892 96.5333 86.5992 96.8541C82.0725 97.4783 77.82 97.5716 74.0692 97.6358C65.7354 97.757 57.4023 97.3498 49.12 96.4166C48.8007 96.3752 48.4766 96.4373 48.1952 96.5938C47.9138 96.7502 47.69 96.9928 47.5567 97.2858L46.2733 100.086C46.1879 100.269 46.0363 100.413 45.849 100.488C45.6618 100.564 45.4528 100.566 45.2642 100.494C33.3058 96.2416 25.7633 89.9941 25.7633 83.035C25.7633 73.4158 40.1542 65.1558 60.6875 61.6266C61.1075 61.545 61.3467 61.7141 61.4458 61.8016C61.895 62.1808 62.35 62.56 62.7875 62.9566C63.0733 63.2016 63.0092 63.4525 62.945 63.6566L51.9842 87.6025L50.2167 91.4583C49.8433 92.4033 50.6542 92.7008 50.9342 92.7008C58.43 93.0858 65.7858 92.9516 72.4883 92.2925C79.8383 91.645 84.4583 90.0583 90.1633 86.5641C94.5513 83.862 98.7159 80.8131 102.618 77.4466C104.787 75.5041 105.908 74.4191 107.313 72.6575C109.769 69.4958 110.253 66.3574 108.323 62.8108C108.113 62.3208 108.673 62.2566 108.883 62.2858C127.514 66.1183 140.289 73.9758 140.289 83.035C140.289 91.5108 129.089 98.9308 112.377 102.985ZM66.2875 66.1883C66.7717 66.6666 67.1275 67.04 67.5825 67.5183C68.7783 68.8774 69.7292 70.1024 69.6592 72.43C69.6242 73.9116 68.9183 75.7083 67.9208 77.4466C66.9292 79.22 65.745 80.8825 64.4092 82.405C62.455 84.7383 60.46 85.7533 57.8175 86.4241C57.3392 86.5175 57.2517 86.1091 57.3508 85.8583L65.5875 66.3225C65.8267 65.8966 66.1825 66.095 66.2875 66.1883ZM83.2392 64.4791C82.603 62.7448 81.6047 61.1659 80.3108 59.8475C80.179 59.7197 80.058 59.5811 79.9492 59.4333C79.8675 59.2933 79.7158 59.0366 79.8908 58.8091C80.1242 58.5408 80.4217 58.6633 80.5267 58.7216C81.3083 59.095 83.98 60.5999 85.415 64.4616C86.5758 67.5766 85.8233 70.6683 82.9008 74.7925C79.0683 80.1941 75.7667 84.26 68.1658 87.3166C64.8467 88.6583 59.4158 89.1541 56.7908 89.1541C55.8808 89.1658 55.3617 89.055 55.21 88.7108C55.1733 88.6443 55.155 88.5693 55.1571 88.4934C55.1591 88.4175 55.1814 88.3435 55.2217 88.2791C55.4667 87.9524 55.8342 88.005 56.155 88.005C59.1125 88.005 64.4325 86.9958 67.6233 85.5025C74.3317 82.3583 77.68 78.1641 80.5325 74.1391C82.4575 71.4383 84.4875 67.8975 83.2392 64.4791ZM95.1392 65.4708C94.8942 63.7383 93.7158 62.2333 92.94 61.2358L92.3275 60.4483C92.1292 60.215 91.9075 59.9524 92.1525 59.6899C92.5433 59.2933 93.1617 59.7658 93.29 59.8475C94.5733 60.7108 96.8075 62.6591 97.3908 65.9841C97.8867 68.7316 97.4375 72.7391 89.5742 79.3483C89.1483 79.6983 88.7225 80.0716 88.2733 80.4683C84.9833 83.3266 80.8942 86.8908 71.87 89.86C68.7433 90.8808 62.8225 91.6275 57.7883 91.6275C56.8725 91.6275 56.0325 91.5983 55.28 91.5458C54.44 91.4875 54.1892 91.1958 54.125 90.9625C54.1062 90.8995 54.1022 90.833 54.1133 90.7683C54.1244 90.7035 54.1504 90.6422 54.1892 90.5891C54.3058 90.4375 54.5392 90.3441 54.8308 90.3383C63.2425 90.1633 66.1475 89.6383 71.1817 88.0283C78.6775 85.625 84.1317 81.1858 88.0342 77.5866C95.8392 70.3941 95.3842 67.1916 95.145 65.4708M83 53.95C44.3367 53.95 13 66.9525 13 83C13 99.0416 44.3367 112.05 83 112.05C121.663 112.05 153 99.0416 153 83C153 66.9583 121.663 53.95 83 53.95Z" fill="white"/>
</svg>
