<svg width="166" height="166" viewBox="0 0 166 166" fill="none" xmlns="http://www.w3.org/2000/svg">
<g clip-path="url(#clip0_3598_1920)">
<path d="M140.709 61.0083C116.285 61.0141 110.09 74.8041 109.093 84.1666C107.961 94.6783 115.235 104.992 133.167 104.992C140.715 104.992 145.65 103.679 147.4 103.125C147.617 103.057 147.812 102.93 147.963 102.76C148.114 102.589 148.216 102.381 148.258 102.157L149.267 96.8483C149.302 96.6659 149.288 96.4776 149.229 96.3018C149.169 96.126 149.065 95.9687 148.926 95.8452C148.787 95.7218 148.619 95.6365 148.437 95.5976C148.256 95.5587 148.067 95.5675 147.89 95.6233C145.93 96.2416 142.465 97.0933 138.061 97.0933C129.492 97.0933 123.303 91.9483 124.09 83.0933C124.848 74.5183 130.629 67.985 138.586 67.985C143.369 67.985 145.487 70.4933 145.329 73.8358V74.0283C145.322 74.1726 145.344 74.3169 145.394 74.4525C145.444 74.588 145.521 74.7121 145.62 74.8172C145.72 74.9224 145.839 75.0064 145.971 75.0643C146.104 75.1222 146.246 75.1527 146.391 75.1541H149.64C150.142 75.1541 150.573 74.8041 150.69 74.32L152.965 64.0533C153.037 63.7405 152.987 63.4119 152.824 63.1351C152.661 62.8584 152.399 62.6546 152.09 62.5658C148.387 61.5311 144.56 61.009 140.715 61.0141L140.709 61.0083ZM23.1267 61.685C22.862 61.6851 22.6052 61.7753 22.3985 61.9406C22.1918 62.106 22.0475 62.3367 21.9892 62.595L21.3592 65.4183C21.2983 65.6961 21.342 65.9865 21.4819 66.2341C21.6218 66.4817 21.8482 66.6689 22.1176 66.76L22.3101 66.8183C23.5234 67.2966 24.9351 68.37 24.3401 71.1816L19.7201 92.2983C18.5126 98.0558 16.5584 99.24 14.7034 99.45H14.6451C14.399 99.4741 14.1669 99.5758 13.9824 99.7404C13.7978 99.9051 13.6704 100.124 13.6184 100.366L13.0234 103.072C12.9877 103.236 12.989 103.405 13.0272 103.568C13.0654 103.73 13.1395 103.882 13.2441 104.013C13.3487 104.143 13.4811 104.248 13.6317 104.321C13.7822 104.393 13.9471 104.431 14.1142 104.432H34.4551C34.9509 104.432 35.3826 104.082 35.4876 103.603L36.1876 100.436C36.2414 100.187 36.2053 99.9278 36.0856 99.7034C35.966 99.4791 35.7706 99.3045 35.5342 99.2108L35.4059 99.1525C34.3734 98.7441 32.9676 97.8458 33.3292 96.1775L35.6917 85.3858C43.7942 100.173 46.4717 104.437 56.1901 104.432H64.9751C65.2158 104.432 65.4495 104.35 65.6372 104.199C65.825 104.049 65.9557 103.838 66.0076 103.603L66.6201 100.862C66.6573 100.697 66.6575 100.526 66.6206 100.362C66.5837 100.197 66.5107 100.043 66.4069 99.9101C66.303 99.7772 66.1709 99.6691 66.0202 99.5935C65.8694 99.518 65.7037 99.4769 65.5351 99.4733C63.3417 99.4383 62.2684 98.9308 60.0809 96.1191L48.8109 80.8708L63.4526 68.6908C65.4184 67.1508 67.8159 66.7191 69.1459 66.5441L69.2742 66.5325C69.5011 66.5108 69.7153 66.4179 69.8861 66.267C70.0569 66.1161 70.1756 65.915 70.2251 65.6925L70.8259 62.9858C70.8599 62.8291 70.8583 62.6668 70.8213 62.5107C70.7844 62.3547 70.7129 62.2089 70.6122 62.0841C70.5114 61.9594 70.384 61.8587 70.2393 61.7897C70.0946 61.7206 69.9363 61.6848 69.7759 61.685H52.1592C51.897 61.6864 51.643 61.7765 51.4386 61.9407C51.2342 62.1049 51.0914 62.3334 51.0334 62.5891L50.4384 65.2725C50.3744 65.5604 50.4219 65.8619 50.5713 66.1162C50.7206 66.3706 50.9608 66.5589 51.2434 66.6433C52.2817 67.0458 52.5092 68.0433 51.6109 68.7783L36.6017 81.25L39.1684 69.5016C39.3428 68.8259 39.6916 68.2078 40.1799 67.7093C40.6682 67.2107 41.2789 66.8492 41.9509 66.6608L42.0967 66.6141C42.2919 66.5532 42.4675 66.4418 42.6057 66.2912C42.744 66.1407 42.8401 65.9563 42.8842 65.7566L43.5026 62.9741C43.5366 62.8198 43.5356 62.6597 43.4995 62.5058C43.4634 62.3518 43.3933 62.208 43.2942 62.0848C43.1951 61.9616 43.0696 61.8623 42.9269 61.7941C42.7843 61.7259 42.6282 61.6906 42.4701 61.6908L23.1267 61.685ZM74.9267 61.685C74.663 61.6864 74.4076 61.7772 74.2021 61.9424C73.9965 62.1077 73.8531 62.3377 73.7951 62.595L73.1709 65.4125C73.1111 65.6772 73.1505 65.9547 73.2817 66.1923C73.4129 66.4299 73.6267 66.6112 73.8826 66.7016L73.9992 66.7483C75.1892 67.1975 76.8401 68.3466 76.1226 71.17L69.0642 103.137C69.0292 103.292 69.0296 103.454 69.0655 103.609C69.1014 103.764 69.1719 103.91 69.2716 104.034C69.3714 104.159 69.4979 104.259 69.6417 104.328C69.7856 104.396 69.9431 104.432 70.1026 104.432H86.3017C86.8034 104.432 87.2351 104.082 87.3459 103.597L88.0459 100.407C88.0961 100.179 88.0667 99.9418 87.9627 99.7337C87.8586 99.5255 87.6861 99.3595 87.4742 99.2633C87.4215 99.2385 87.369 99.2132 87.3167 99.1875C86.2901 98.6858 84.7617 97.525 85.2751 95.2791C85.3276 94.9875 86.8501 88.0458 86.8501 88.0458H100.628C101.13 88.0458 101.562 87.6958 101.678 87.2116L102.968 81.3783C103.004 81.2211 103.004 81.0577 102.968 80.9004C102.932 80.7432 102.86 80.5962 102.759 80.4704C102.658 80.3447 102.53 80.2434 102.384 80.1744C102.238 80.1053 102.079 80.0702 101.918 80.0716H88.6176L91.1084 68.755L100.395 68.7375C103.399 68.7375 104.315 70.3125 104.14 72.9841L104.128 73.1241C104.111 73.2745 104.126 73.4269 104.172 73.5712C104.217 73.7155 104.293 73.8485 104.394 73.9614C104.495 74.0744 104.618 74.1647 104.757 74.2265C104.895 74.2883 105.045 74.3201 105.196 74.32H108.62C109.122 74.32 109.553 73.97 109.658 73.48L111.992 62.98C112.025 62.8237 112.022 62.662 111.985 62.5067C111.948 62.3514 111.876 62.2064 111.775 62.0823C111.675 61.9582 111.548 61.8582 111.403 61.7894C111.259 61.7207 111.101 61.685 110.942 61.685H74.9267Z" fill="white"/>
</g>
<defs>
<clipPath id="clip0_3598_1920">
<rect width="140" height="140" fill="white" transform="translate(13 13)"/>
</clipPath>
</defs>
</svg>
