<svg width="166" height="166" viewBox="0 0 166 166" fill="none" xmlns="http://www.w3.org/2000/svg">
<path d="M63.96 59.9468C60.565 59.9468 57.9225 62.6943 57.9225 66.0951L58.0567 99.8993C58.0567 103.294 60.6525 106.048 64.0592 106.048H64.7592C68.16 106.048 70.9075 103.294 70.9075 99.8993L70.7733 66.0951C70.7733 62.6943 68.02 59.9468 64.6192 59.9468H63.96ZM81.8742 59.9876C78.5258 59.9876 75.8075 62.7176 75.8075 66.0776V96.6443C75.8075 101.223 80.3167 105.639 84.7967 105.639H108.468C111.834 105.639 114.098 103.189 116.005 99.8351L128.325 78.7068C128.43 78.4734 128.634 78.1818 128.868 78.1818C129.124 78.1818 129.276 78.4734 129.404 78.6951L137.46 91.6218C137.798 92.1701 137.857 92.4443 137.647 92.9343C137.46 93.3834 137.011 93.4768 136.305 93.4768H124.994C121.622 93.4768 118.904 96.2009 118.904 99.5668V99.9459C118.904 103.312 121.622 105.639 124.994 105.639H143.445C147.937 105.639 153 101.369 153 95.7809C153 92.2401 152.312 90.9859 149.36 86.1851L135.698 63.9368C134.094 61.3584 131.907 60.1101 129.147 60.1101C126.289 60.1101 123.874 61.4459 122.363 63.9368L106.543 90.1634C105.464 91.9601 104.222 92.6951 102.168 92.6951H90.3967C90.1772 92.7032 89.9583 92.6661 89.7538 92.5862C89.5492 92.5062 89.3632 92.3851 89.2073 92.2303C89.0514 92.0756 88.929 91.8904 88.8476 91.6864C88.7663 91.4824 88.7276 91.2638 88.7342 91.0443L88.7458 66.0776C88.7458 62.7176 86.0158 59.9876 82.6558 59.9876H81.8742ZM19.1542 60.8218C15.7592 60.8218 13 63.4234 13 66.8184V67.2501C13 70.6568 15.7592 73.4043 19.1542 73.4043H47.9417C51.3308 73.4043 54.0958 70.6568 54.0958 67.2501V66.8651C54.0928 66.063 53.9308 65.2694 53.6191 64.5303C53.3074 63.7912 52.8522 63.1212 52.2798 62.5592C51.7075 61.9972 51.0294 61.5543 50.2848 61.256C49.5401 60.9578 48.7437 60.8102 47.9417 60.8218H19.1542ZM20.245 77.2659C16.0217 77.2659 13.0058 80.5793 13.0058 84.5051L13 99.9751C13 103.341 15.7242 106.053 19.0783 106.053H19.86C20.6586 106.055 21.4497 105.899 22.1879 105.594C22.926 105.289 23.5967 104.841 24.1615 104.277C24.7262 103.712 25.1739 103.041 25.4788 102.303C25.7837 101.565 25.9399 100.774 25.9383 99.9751V91.4701C25.9383 90.5543 26.6733 89.8134 27.5892 89.8134H44.9667C48.3208 89.8134 51.0508 87.1009 51.0508 83.7351V83.3501C51.0508 79.9901 48.3208 77.2659 44.9667 77.2659H20.245Z" fill="white"/>
</svg>
