<svg width="200" height="200" viewBox="0 0 200 200" fill="none" xmlns="http://www.w3.org/2000/svg">
<g clip-path="url(#clip0_3730_11951)">
<path d="M100 0C44.775 0 0 44.775 0 100C0 155.225 44.775 200 100 200C155.225 200 200 155.225 200 100C200 44.775 155.225 0 100 0ZM100 6.5C151.633 6.5 193.492 48.3583 193.492 100C193.492 151.633 151.642 193.492 100 193.492C48.3583 193.492 6.50833 151.633 6.50833 100C6.50833 48.3667 48.3667 6.5 100 6.5ZM94.35 11.75C91.6 11.8667 88.85 12.1 86.0833 12.4L85.1917 36.9333C87.1538 36.6013 89.1273 36.34 91.1083 36.15L91.6917 19.5833L91.5833 18.4417L91.9417 19.525L97.475 31.9333H102.525L108.058 19.5333L108.392 18.4417L108.308 19.5833L108.892 36.15C110.825 36.3333 112.833 36.6 114.808 36.9333L113.9 12.4C111.153 12.0904 108.395 11.8736 105.633 11.75L100.192 25.2917L100 26.2917L99.8083 25.2917L94.35 11.75ZM150.15 26.95L137.292 47.1833C138.917 48.4333 141.058 50.275 142.433 51.5333L154.542 45.25L155.308 44.675L154.733 45.4583L148.467 57.5667C149.825 59.025 151.783 61.3833 152.883 62.8167L173.133 49.95C171.891 48.3435 170.613 46.7653 169.3 45.2167L156.475 53.6667L155.6 54.4333L156.25 53.475L161.917 42.175L157.917 38.175L146.617 43.8417L145.658 44.4917L146.417 43.6083L154.9 30.7833C153.4 29.5167 151.975 28.3583 150.15 26.95ZM45.8333 31.5417C42.8333 31.85 40.5167 33.9 34.225 40.9167C32.0433 43.3891 29.9395 45.9293 27.9167 48.5333L45.2 64.925C50.925 58.5917 53.25 56.2417 57.7667 51.4833C60.9583 48.1083 62.7667 44.2333 59.5667 40.5083C57.8333 38.4917 54.9167 38.05 52.4833 39.05L52.25 39.1333L52.3333 38.9167C52.6339 37.8109 52.6021 36.6412 52.242 35.5534C51.8818 34.4656 51.2093 33.508 50.3083 32.8C49.6821 32.3062 48.9641 31.9415 48.196 31.7269C47.4279 31.5124 46.6248 31.4522 45.8333 31.55V31.5417ZM45.8833 36.6667C47.0167 36.3583 48.1917 37.1667 48.45 38.3333C48.7167 39.5 47.9833 40.6 47.1667 41.5167C45.3333 43.6 38.575 50.6667 38.575 50.6667L35.225 47.475C38.7 43.225 42.4 39.3583 44.075 37.825C44.5775 37.3011 45.1973 36.9041 45.8833 36.6667ZM100 40.6917C85.32 40.6852 71.1597 46.1255 60.2604 55.9595C49.3611 65.7935 42.4981 79.3217 41 93.925V93.9417C40.0583 103.207 41.3102 112.563 44.6542 121.255C47.9983 129.946 53.3408 137.729 60.2497 143.973C67.1586 150.218 75.4401 154.749 84.4244 157.2C93.4087 159.651 102.844 159.954 111.967 158.083C125.339 155.335 137.352 148.053 145.977 137.471C154.601 126.888 159.307 113.652 159.3 100C159.285 84.2782 153.032 69.2048 141.914 58.0886C130.796 46.9723 115.722 40.7216 100 40.7083V40.6917ZM53.8583 42.7083C54.25 42.7083 54.6583 42.8167 55.025 43.0667C55.7583 43.5583 56.0917 44.4 55.9083 45.2333C55.6917 46.225 54.8667 47.1583 54.2 47.8833L45.4917 57.2167L41.9917 53.8833C41.9917 53.8833 48.55 46.95 50.7 44.725C51.55 43.8417 52.1 43.3083 52.6833 43.0167C53.0447 42.829 53.4431 42.7237 53.85 42.7083H53.8583ZM100 48.4833C106.767 48.4757 113.47 49.8029 119.724 52.3892C125.977 54.9754 131.66 58.7698 136.445 63.5551C141.23 68.3404 145.025 74.0226 147.611 80.2763C150.197 86.5301 151.524 93.2326 151.517 100H100V151.517C93.2326 151.524 86.5301 150.197 80.2763 147.611C74.0226 145.025 68.3404 141.23 63.5551 136.445C58.7698 131.66 54.9754 125.977 52.3892 119.724C49.8029 113.47 48.4757 106.767 48.4833 100H100V48.4833Z" fill="white"/>
</g>
<defs>
<clipPath id="clip0_3730_11951">
<rect width="200" height="200" fill="white"/>
</clipPath>
</defs>
</svg>
