<svg width="200" height="200" viewBox="0 0 200 200" fill="none" xmlns="http://www.w3.org/2000/svg">
<g clip-path="url(#clip0_3730_11961)">
<path d="M192.833 32.4584C190.116 21.5667 176.5 15.7834 166.975 12.0417C144.183 3.1917 111.516 -1.5833 86.6745 0.466696C62.1745 2.50836 30.5245 9.3167 15.2162 20.8834C10.7912 24.2917 7.72454 27.35 6.70787 35.175C4.6662 51.85 12.4912 76.6917 17.2495 91.6667C18.6079 90.9834 20.3079 88.9417 24.3912 86.9C32.5579 82.8167 42.4245 80.0917 51.6162 78.4C84.6162 71.5917 130.558 70.9 164.925 70.9C169.008 70.9 173.091 70.9 176.841 71.25C180.583 71.25 185.008 71.5834 188.75 71.5834L190.791 62.4C192.491 53.9 194.875 40.9584 192.833 32.4584ZM49.5829 46.0667C45.1579 60.0167 32.2245 57.9834 19.2995 57.9834L25.4162 30.75C28.1329 30.4167 32.8995 30.75 35.9579 30.75C39.7079 30.75 42.4245 30.75 45.4912 31.775C50.5912 33.8167 51.6162 39.9417 49.5745 46.0667H49.5829ZM64.8912 58.65C57.4079 59 50.5995 57.3 51.9662 49.1334C52.2995 47.0917 55.7079 31.4334 56.0495 30.75H66.9329C66.5995 33.8167 65.2329 38.5834 64.5495 41.6417C64.2162 43.6834 63.8745 45.0417 63.5329 47.0917C63.1995 48.7917 62.5079 51.85 65.2329 51.175C66.9329 50.8334 67.2745 48.7917 67.6162 47.0917C68.6329 42.325 70.3412 34.8417 71.0162 30.7584H81.9162C81.5829 33.475 80.5579 37.5584 79.8745 40.2834C78.1745 49.1334 78.1745 57.975 64.8995 58.6584L64.8912 58.65ZM92.4579 58.65C83.2662 58.65 79.8662 52.875 81.9079 44.025C84.9662 29.3917 100.283 28.025 106.408 31.4417C109.808 33.475 110.491 35.8584 109.808 40.625H99.5995C99.5995 39.2584 99.9412 37.9 98.9245 37.2167C97.8995 36.5417 96.1995 37.2167 95.5162 37.9C93.8162 39.6 91.0995 49.8167 93.1329 51.175C95.5162 52.875 97.2162 49.4667 97.5579 47.7667H107.766C107.091 54.575 100.966 59 92.4579 58.6584V58.65ZM127.166 57.9834V53.9H119.333L117.3 58.3167H106.75C107.083 57.3 112.875 46.4 113.891 44.7084L121.383 31.0917H135.675L138.733 58.3167C136.35 57.9834 128.525 58.3167 127.166 57.9834ZM158.475 37.9C157.791 39.2584 156.433 46.0667 156.091 47.7667C155.408 50.4917 154.725 54.9167 153.708 57.6334H142.816C142.483 55.9334 146.9 39.9417 146.9 37.5584H140.1L141.8 30.075H166.633C166.633 31.0917 165.275 36.875 164.933 37.5584L158.475 37.9ZM173.783 57.9834H162.558L168.333 30.75H179.216L173.775 57.975L173.783 57.9834ZM154.391 82.4834C143.841 83.5 133.975 84.5167 124.1 85.8834C105.391 88.6 85.9912 93.3667 70.3412 99.8334C57.0662 105.617 38.0079 117.183 38.0079 134.542C38.0079 137.258 38.3495 137.258 40.3912 140.325C43.4579 144.742 47.5412 150.875 50.5995 154.958C60.4662 167.542 78.1662 189.325 92.1162 197.15C96.1995 199.533 99.5995 201.233 104.7 198.85C108.45 197.15 112.2 194.433 114.916 192.383C132.95 177.758 156.433 147.808 167.316 127.733C174.808 113.783 181.608 96.7667 186.375 80.4334C183.308 80.1 157.458 82.1334 154.391 82.475V82.4834ZM126.825 46.75V36.875C126.141 37.5584 122.741 45.3834 122.408 46.75H126.825ZM34.9495 36.875L31.5495 51.85C36.3079 52.1917 37.6745 49.125 38.3495 45.3834C39.3745 41.3 40.7329 36.5417 34.9495 36.8834V36.875Z" fill="white"/>
</g>
<defs>
<clipPath id="clip0_3730_11961">
<rect width="200" height="200" fill="white"/>
</clipPath>
</defs>
</svg>
