<svg width="200" height="200" viewBox="0 0 200 200" fill="none" xmlns="http://www.w3.org/2000/svg">
<path d="M59.9982 23.9083C54.5816 23.926 49.3925 26.0884 45.5662 29.9224C41.74 33.7565 39.5881 38.95 39.5816 44.3667V70.3417L8.98155 62.7333H8.96488C8.30625 62.5663 7.6273 62.4934 6.94822 62.5167C5.98551 62.5503 5.03936 62.7769 4.16578 63.1828C3.2922 63.5888 2.50897 64.1659 1.86246 64.88C1.21595 65.5941 0.719308 66.4307 0.401952 67.3402C0.0845961 68.2497 -0.0470242 69.2137 0.0148857 70.175C0.861325 81.5537 5.24006 92.3841 12.5397 101.154C19.8393 109.923 29.6953 116.195 40.7316 119.092C43.4209 132.859 50.7942 145.27 61.5984 154.216C72.4025 163.163 85.9711 168.092 99.9982 168.167C114.016 168.081 127.571 163.147 138.365 154.204C149.159 145.26 156.526 132.857 159.215 119.1C170.262 116.211 180.13 109.943 187.439 101.171C194.748 92.3987 199.133 81.5617 199.982 70.175C200.045 69.2137 199.914 68.2495 199.598 67.3396C199.281 66.4296 198.786 65.5924 198.14 64.8775C197.494 64.1626 196.712 63.5845 195.838 63.1776C194.965 62.7706 194.019 62.5431 193.057 62.5083C192.369 62.4854 191.681 62.5611 191.015 62.7333L160.407 70.3417V44.3667C160.4 38.95 158.248 33.7565 154.422 29.9224C150.596 26.0884 145.407 23.926 139.99 23.9083C137.251 23.9754 134.544 24.5167 131.99 25.5083C116.407 32.15 106.04 35.4083 100.065 35.5083C94.0899 35.4083 83.7149 32.15 68.1315 25.5083C65.5381 24.5025 62.7878 23.9609 60.0066 23.9083H59.9982ZM127.79 35.6417C127.89 35.6322 127.99 35.6322 128.09 35.6417C128.632 35.7083 129.148 36.0583 129.557 36.7C129.767 37.0891 129.962 37.4867 130.14 37.8917C130.249 38.1336 130.351 38.3781 130.448 38.625C130.552 38.8781 130.649 39.1337 130.74 39.3917C130.827 39.6507 130.908 39.9119 130.982 40.175C131.057 40.4316 131.127 40.69 131.19 40.95C131.249 41.2153 131.302 41.482 131.348 41.75C131.397 42.0183 131.438 42.2879 131.473 42.5583C131.507 42.816 131.535 43.0744 131.557 43.3333C131.578 43.6162 131.592 43.8997 131.598 44.1833C131.616 44.6193 131.616 45.0557 131.598 45.4917C131.618 45.4916 131.637 45.4916 131.657 45.4917L135.598 41.1083C135.625 41.0798 135.653 41.052 135.682 41.025C135.709 40.9992 135.736 40.9742 135.765 40.95C135.797 40.9212 135.831 40.8934 135.865 40.8667C135.884 40.8496 135.903 40.833 135.923 40.8167C135.956 40.7935 135.989 40.7712 136.023 40.75C136.048 40.7328 136.073 40.7161 136.098 40.7C136.128 40.6826 136.159 40.6659 136.19 40.65C136.217 40.6355 136.245 40.6216 136.273 40.6083C136.303 40.5937 136.334 40.5798 136.365 40.5667C136.401 40.5518 136.437 40.5379 136.473 40.525C136.501 40.5161 136.529 40.5077 136.557 40.5C136.592 40.4879 136.628 40.4768 136.665 40.4667C136.701 40.4574 136.737 40.449 136.773 40.4417C136.804 40.4354 136.834 40.4299 136.865 40.425C136.909 40.418 136.954 40.4124 136.998 40.4083C137.018 40.4081 137.037 40.4081 137.057 40.4083C137.112 40.4061 137.168 40.4061 137.223 40.4083C137.237 40.4082 137.251 40.4082 137.265 40.4083C137.312 40.4123 137.36 40.4178 137.407 40.425C137.434 40.4244 137.462 40.4244 137.49 40.425C137.521 40.4326 137.551 40.441 137.582 40.45C137.618 40.4574 137.654 40.4657 137.69 40.475C137.726 40.4851 137.762 40.4962 137.798 40.5083C137.826 40.5161 137.854 40.5244 137.882 40.5333C137.912 40.5465 137.943 40.5604 137.973 40.575C138.01 40.5906 138.046 40.6073 138.082 40.625C138.084 40.625 138.087 40.625 138.09 40.625C138.101 40.6304 138.112 40.636 138.123 40.6417C138.169 40.6677 138.213 40.6955 138.257 40.725C138.279 40.7357 138.301 40.7468 138.323 40.7583C138.357 40.7796 138.391 40.8018 138.423 40.825C138.452 40.852 138.48 40.8798 138.507 40.9083C138.526 40.9219 138.546 40.9358 138.565 40.95C138.596 40.9796 138.627 41.0102 138.657 41.0417C138.676 41.0635 138.696 41.0857 138.715 41.1083C138.732 41.1275 138.749 41.1469 138.765 41.1667C138.794 41.2046 138.822 41.2435 138.848 41.2833C138.857 41.2971 138.865 41.311 138.873 41.325C138.903 41.3711 138.931 41.4184 138.957 41.4667C139.135 41.7969 139.302 42.1332 139.457 42.475C139.574 42.7166 139.685 42.9612 139.79 43.2083C139.894 43.4669 139.991 43.7281 140.082 43.9917C140.171 44.2341 140.254 44.4786 140.332 44.725C140.408 44.9926 140.477 45.2621 140.54 45.5333C140.605 45.793 140.663 46.0541 140.715 46.3167C140.766 46.5877 140.811 46.86 140.848 47.1333C140.905 47.4984 140.95 47.8653 140.982 48.2333C141.528 48.5416 142.062 48.8724 142.582 49.225C142.893 49.4368 143.198 49.6563 143.498 49.8833C143.81 50.1061 144.115 50.3367 144.415 50.575C144.699 50.8126 144.976 51.0571 145.248 51.3083C145.535 51.565 145.816 51.829 146.09 52.1C146.352 52.3659 146.608 52.6382 146.857 52.9167C147.114 53.1964 147.364 53.4826 147.607 53.775C147.842 54.0693 148.07 54.3694 148.29 54.675C148.52 54.9804 148.742 55.2916 148.957 55.6083C149.159 55.9202 149.353 56.2369 149.54 56.5583C149.737 56.8868 149.926 57.2203 150.107 57.5583C150.279 57.8931 150.443 58.2321 150.598 58.575C150.757 58.9129 150.907 59.2547 151.048 59.6C151.191 59.9604 151.324 60.3244 151.448 60.6917C151.573 61.0388 151.69 61.3889 151.798 61.7417C151.902 62.1142 151.997 62.4893 152.082 62.8667C152.174 63.2257 152.257 63.5869 152.332 63.95C152.396 64.3235 152.452 64.6987 152.498 65.075C152.552 65.4516 152.597 65.8295 152.632 66.2083C152.688 66.8318 152.719 67.4573 152.723 68.0833V82.7333C152.721 83.3927 152.691 84.0516 152.632 84.7083C152.593 85.0761 152.546 85.4429 152.49 85.8083C152.444 86.1847 152.388 86.5598 152.323 86.9333C152.25 87.3132 152.166 87.6911 152.073 88.0667C151.99 88.4216 151.898 88.7745 151.798 89.125C151.686 89.5003 151.563 89.8727 151.432 90.2417C151.315 90.5863 151.19 90.9281 151.057 91.2667C150.907 91.6206 150.749 91.9707 150.582 92.3167C150.429 92.6539 150.267 92.9873 150.098 93.3167C149.918 93.6491 149.729 93.977 149.532 94.3C149.345 94.627 149.151 94.9493 148.948 95.2667C148.739 95.5747 148.522 95.8776 148.298 96.175C148.073 96.4865 147.839 96.7921 147.598 97.0917C147.355 97.3812 147.105 97.6646 146.848 97.9417C146.605 98.2172 146.355 98.4867 146.098 98.75C145.816 99.0242 145.527 99.2909 145.232 99.55C144.965 99.7982 144.693 100.04 144.415 100.275C144.123 100.507 143.826 100.732 143.523 100.95C143.215 101.183 142.901 101.408 142.582 101.625C142.272 101.827 141.958 102.022 141.64 102.208C141.311 102.406 140.978 102.595 140.64 102.775C140.313 102.941 139.983 103.1 139.648 103.25C139.3 103.42 138.947 103.581 138.59 103.733C138.251 103.867 137.91 103.992 137.565 104.108C137.199 104.24 136.829 104.362 136.457 104.475C136.092 104.576 135.725 104.668 135.357 104.75C134.998 104.842 134.636 104.926 134.273 105C133.886 105.066 133.497 105.121 133.107 105.167C132.749 105.222 132.391 105.27 132.032 105.308C131.375 105.368 130.716 105.398 130.057 105.4H128.307C127.628 105.397 126.949 105.364 126.273 105.3C125.9 105.262 125.528 105.215 125.157 105.158C124.786 105.112 124.416 105.056 124.048 104.992C123.668 104.913 123.29 104.824 122.915 104.725C122.56 104.645 122.207 104.556 121.857 104.458C121.49 104.343 121.126 104.218 120.765 104.083C120.412 103.964 120.062 103.836 119.715 103.7C119.367 103.553 119.022 103.397 118.682 103.233C118.341 103.078 118.005 102.914 117.673 102.742C117.341 102.561 117.013 102.372 116.69 102.175C116.363 101.986 116.04 101.789 115.723 101.583C115.421 101.371 115.123 101.152 114.832 100.925C114.52 100.702 114.215 100.472 113.915 100.233C113.625 99.9905 113.342 99.7404 113.065 99.4833C112.786 99.2346 112.514 98.9789 112.248 98.7167C111.98 98.44 111.719 98.1566 111.465 97.8667C111.214 97.5949 110.969 97.3171 110.732 97.0333C110.499 96.7362 110.274 96.4334 110.057 96.125C109.827 95.8251 109.604 95.5194 109.39 95.2083C109.193 94.8936 109.004 94.574 108.823 94.25C108.744 94.1175 108.666 93.9841 108.59 93.85V102.017C108.586 102.22 108.575 102.423 108.557 102.625C108.549 102.764 108.538 102.903 108.523 103.042C108.505 103.192 108.483 103.342 108.457 103.492C108.457 103.497 108.457 103.503 108.457 103.508C108.434 103.626 108.409 103.742 108.382 103.858C108.343 104.035 108.298 104.21 108.248 104.383C108.222 104.478 108.194 104.573 108.165 104.667C108.104 104.849 108.038 105.03 107.965 105.208C107.933 105.295 107.9 105.381 107.865 105.467C107.78 105.656 107.688 105.842 107.59 106.025C107.542 106.12 107.492 106.215 107.44 106.308C107.373 106.421 107.304 106.532 107.232 106.642C107.146 106.775 107.057 106.905 106.965 107.033C106.889 107.138 106.812 107.241 106.732 107.342C106.64 107.461 106.546 107.577 106.448 107.692C106.354 107.8 106.256 107.905 106.157 108.008C106.056 108.111 105.953 108.211 105.848 108.308C105.74 108.406 105.628 108.5 105.515 108.592C105.411 108.68 105.306 108.766 105.198 108.85C105.078 108.942 104.956 109.031 104.832 109.117C104.719 109.194 104.606 109.269 104.49 109.342C104.364 109.417 104.236 109.489 104.107 109.558C103.983 109.628 103.858 109.695 103.732 109.758C103.602 109.817 103.472 109.873 103.34 109.925C103.202 109.984 103.064 110.04 102.923 110.092C102.794 110.139 102.663 110.184 102.532 110.225C102.396 110.267 102.26 110.306 102.123 110.342C101.98 110.379 101.835 110.412 101.69 110.442C101.552 110.47 101.413 110.495 101.273 110.517C101.129 110.537 100.985 110.554 100.84 110.567C100.704 110.581 100.568 110.592 100.432 110.6C100.284 110.604 100.137 110.604 99.9899 110.6C99.8455 110.604 99.701 110.604 99.5565 110.6C99.4174 110.592 99.2785 110.581 99.1399 110.567C98.9978 110.554 98.8561 110.537 98.7149 110.517C98.5697 110.493 98.4253 110.465 98.2815 110.433C98.1419 110.406 98.003 110.376 97.8649 110.342C97.725 110.306 97.5861 110.267 97.4482 110.225C97.3166 110.184 97.186 110.139 97.0565 110.092C96.9162 110.04 96.7773 109.984 96.6399 109.925C96.5108 109.873 96.383 109.817 96.2565 109.758C96.1271 109.695 95.9993 109.628 95.8732 109.558C95.7436 109.489 95.6158 109.417 95.4899 109.342C95.377 109.269 95.2659 109.194 95.1565 109.117C95.0292 109.031 94.9041 108.942 94.7815 108.85C94.674 108.766 94.5684 108.68 94.4649 108.592C94.3514 108.5 94.2402 108.406 94.1315 108.308C94.0291 108.211 93.9291 108.111 93.8316 108.008C93.7317 107.905 93.6345 107.8 93.5399 107.692C93.4396 107.578 93.3423 107.461 93.2482 107.342C93.1681 107.241 93.0903 107.138 93.0149 107.033C92.9224 106.905 92.8335 106.775 92.7482 106.642C92.6968 106.559 92.6468 106.476 92.5982 106.392C92.459 106.156 92.3311 105.914 92.2149 105.667C92.2065 105.65 92.1982 105.633 92.1899 105.617C92.0852 105.388 91.9907 105.154 91.9066 104.917C91.8923 104.875 91.8785 104.833 91.8649 104.792C91.7963 104.591 91.7351 104.388 91.6815 104.183C91.6579 104.095 91.6357 104.006 91.6149 103.917C91.5794 103.751 91.5488 103.584 91.5232 103.417C91.5013 103.298 91.4818 103.178 91.4649 103.058C91.455 102.964 91.4466 102.87 91.4399 102.775C91.4338 102.72 91.4282 102.664 91.4232 102.608C91.4232 102.603 91.4232 102.597 91.4232 102.592C91.4087 102.403 91.4003 102.214 91.3982 102.025V93.8667C91.3272 93.9951 91.255 94.1229 91.1816 94.25C90.9952 94.577 90.8007 94.8993 90.5982 95.2167C90.3916 95.519 90.1776 95.8163 89.9566 96.1083C89.7314 96.4282 89.498 96.7422 89.2566 97.05C89.0241 97.3251 88.7852 97.5946 88.5399 97.8583C88.2835 98.154 88.0196 98.443 87.7482 98.725C87.4769 98.9875 87.199 99.2431 86.9149 99.4917C86.6433 99.7485 86.3655 99.9986 86.0816 100.242C85.7819 100.48 85.4762 100.711 85.1649 100.933C84.8703 101.16 84.5703 101.38 84.2649 101.592C83.9531 101.794 83.6363 101.988 83.3149 102.175C82.9865 102.375 82.6531 102.567 82.3149 102.75C81.9856 102.919 81.6521 103.08 81.3149 103.233C80.9744 103.397 80.6298 103.553 80.2815 103.7C79.9266 103.84 79.5681 103.97 79.2066 104.092C78.8541 104.223 78.4984 104.345 78.1399 104.458C77.7893 104.556 77.4364 104.645 77.0816 104.725C76.7034 104.824 76.3227 104.913 75.9399 104.992C75.5802 105.056 75.219 105.112 74.8566 105.158C74.4773 105.215 74.0966 105.262 73.7149 105.3C73.0362 105.364 72.3549 105.397 71.6732 105.4H69.9232C69.2637 105.395 68.6048 105.362 67.9482 105.3C67.5861 105.264 67.2249 105.22 66.8649 105.167C66.4746 105.121 66.0856 105.066 65.6982 105C65.3407 104.925 64.985 104.842 64.6316 104.75C64.2598 104.668 63.8903 104.576 63.5232 104.475C63.1535 104.362 62.7867 104.24 62.4232 104.108C62.0786 103.992 61.7368 103.867 61.3982 103.733C61.0386 103.581 60.6829 103.42 60.3316 103.25C59.9944 103.1 59.661 102.941 59.3316 102.775C58.9962 102.592 58.6655 102.4 58.3399 102.2C58.0214 102.016 57.7074 101.824 57.3982 101.625C57.0787 101.411 56.7647 101.189 56.4566 100.958C56.1565 100.738 55.862 100.51 55.5732 100.275C55.2924 100.04 55.0173 99.7983 54.7482 99.55C54.4552 99.2908 54.169 99.024 53.8899 98.75C53.6334 98.4867 53.3833 98.2172 53.1399 97.9417C52.8828 97.6646 52.6327 97.3812 52.3899 97.0917C52.1488 96.7921 51.9154 96.4865 51.6899 96.175C51.4658 95.8776 51.249 95.5747 51.0399 95.2667C50.8346 94.9494 50.6373 94.6271 50.4482 94.3C50.2511 93.977 50.0622 93.6491 49.8816 93.3167C49.7123 92.9873 49.5511 92.6539 49.3982 92.3167C49.2338 91.9707 49.0782 91.6206 48.9316 91.2667C48.7982 90.9253 48.6732 90.5808 48.5566 90.2333C48.422 89.8672 48.297 89.4976 48.1816 89.125C48.0842 88.7744 47.9953 88.4215 47.9149 88.0667C47.8219 87.6911 47.7385 87.3132 47.6649 86.9333C47.5999 86.5598 47.5443 86.1847 47.4982 85.8083C47.442 85.4429 47.3948 85.0761 47.3566 84.7083C47.2942 84.049 47.2608 83.3873 47.2565 82.725V68.0833C47.2635 67.4517 47.2969 66.8205 47.3566 66.1917C47.3916 65.8156 47.4361 65.4405 47.4899 65.0667C47.5364 64.6987 47.592 64.3319 47.6566 63.9667C47.7302 63.5868 47.8136 63.2089 47.9066 62.8333C47.9948 62.4699 48.0921 62.1086 48.1982 61.75C48.3059 61.3888 48.4226 61.0304 48.5482 60.675C48.6698 60.3162 48.8004 59.9606 48.9399 59.6083C49.0866 59.2544 49.2422 58.9043 49.4066 58.5583C49.5596 58.2239 49.7208 57.8932 49.8899 57.5667C50.0754 57.22 50.2699 56.8782 50.4732 56.5417C50.6575 56.2288 50.8492 55.9203 51.0482 55.6167C51.265 55.2943 51.4901 54.9775 51.7232 54.6667C51.9382 54.3668 52.1605 54.0723 52.3899 53.7833C52.6354 53.4909 52.8883 53.2047 53.1482 52.925C53.3995 52.6408 53.658 52.3629 53.9232 52.0917C54.1866 51.8351 54.4561 51.5851 54.7315 51.3417C55.0193 51.0757 55.3138 50.8173 55.6149 50.5667C55.8984 50.3375 56.1873 50.1152 56.4815 49.9C56.7925 49.6697 57.1093 49.4474 57.4316 49.2333C57.9509 48.8808 58.4847 48.5499 59.0316 48.2417C59.0633 47.8708 59.1078 47.5011 59.1649 47.1333C59.2002 46.8712 59.2418 46.61 59.2899 46.35C59.3415 46.0819 59.3998 45.8151 59.4649 45.55C59.5279 45.29 59.5974 45.0316 59.6732 44.775C59.7499 44.5118 59.8333 44.2506 59.9232 43.9917C60.0113 43.7366 60.1058 43.4837 60.2066 43.2333C60.3115 42.9834 60.4226 42.7361 60.5399 42.4917C60.6899 42.1585 60.8511 41.8306 61.0232 41.5083C61.0489 41.4572 61.0767 41.4072 61.1066 41.3583C61.1175 41.3443 61.1286 41.3304 61.1399 41.3167C61.1665 41.2796 61.1943 41.2435 61.2232 41.2083C61.2395 41.1886 61.2562 41.1691 61.2732 41.15C61.2922 41.1274 61.3116 41.1051 61.3316 41.0833C61.3584 41.0519 61.3862 41.0214 61.4149 40.9917C61.434 40.9746 61.4535 40.958 61.4732 40.9417C61.503 40.9158 61.5336 40.8908 61.5649 40.8667C61.5976 40.8435 61.6309 40.8212 61.6649 40.8C61.6868 40.7857 61.7091 40.7718 61.7316 40.7583C61.7751 40.7317 61.8195 40.7067 61.8649 40.6833C61.8814 40.6748 61.8981 40.6664 61.9149 40.6583C61.9505 40.6406 61.9866 40.6239 62.0232 40.6083C62.0534 40.5937 62.084 40.5798 62.1149 40.5667C62.1425 40.5577 62.1703 40.5494 62.1982 40.5417C62.234 40.5296 62.2701 40.5184 62.3066 40.5083C62.3424 40.499 62.3786 40.4907 62.4149 40.4833C62.4453 40.4771 62.4759 40.4715 62.5065 40.4667C62.5343 40.4633 62.5621 40.4605 62.5899 40.4583C62.6369 40.4511 62.6842 40.4456 62.7315 40.4417C62.7482 40.4415 62.7649 40.4415 62.7816 40.4417C62.8343 40.4396 62.8871 40.4396 62.9399 40.4417C62.9593 40.4414 62.9788 40.4414 62.9982 40.4417C63.0429 40.4485 63.0874 40.4569 63.1316 40.4667C63.1594 40.4716 63.1872 40.4772 63.2149 40.4833C63.254 40.4905 63.2929 40.4989 63.3316 40.5083C63.3652 40.5186 63.3985 40.5297 63.4315 40.5417C63.4623 40.5493 63.4929 40.5576 63.5232 40.5667C63.5597 40.5795 63.5958 40.5934 63.6316 40.6083C63.6596 40.6216 63.6874 40.6355 63.7149 40.65C63.743 40.6633 63.7708 40.6771 63.7982 40.6917C63.832 40.7074 63.8653 40.7241 63.8982 40.7417C63.9236 40.7578 63.9486 40.7745 63.9732 40.7917C64.0072 40.8129 64.0405 40.8351 64.0732 40.8583C64.0929 40.8719 64.1124 40.8858 64.1316 40.9C64.1657 40.9267 64.1991 40.9545 64.2316 40.9833C64.2601 41.0103 64.2879 41.0381 64.3149 41.0667C64.3434 41.0936 64.3712 41.1214 64.3982 41.15V41.1083L68.3232 45.4667C68.351 45.4666 68.3788 45.4666 68.4065 45.4667C68.3867 45.0364 68.3839 44.6055 68.3982 44.175C68.4073 43.8885 68.424 43.6023 68.4482 43.3167C68.467 43.0578 68.492 42.7994 68.5232 42.5417C68.5581 42.2712 68.5998 42.0017 68.6482 41.7333C68.6972 41.4681 68.7528 41.2041 68.8149 40.9417C68.875 40.6789 68.9417 40.4177 69.0149 40.1583C69.0916 39.8951 69.175 39.634 69.2649 39.375C69.3529 39.1171 69.4474 38.8615 69.5482 38.6083C69.6424 38.3643 69.7424 38.1225 69.8482 37.8833C70.0266 37.4811 70.2212 37.0864 70.4315 36.7C71.1399 35.575 72.2149 35.3417 73.0982 36.0083C73.2232 36.1 73.3482 36.2167 73.4649 36.3417L88.2982 52.5083V52.4917C88.5455 52.7473 88.8012 52.9947 89.0649 53.2333C89.2577 53.416 89.4549 53.5938 89.6565 53.7667C89.8634 53.9386 90.0746 54.1053 90.2899 54.2667C90.5025 54.4304 90.7193 54.5888 90.9399 54.7417C91.1587 54.886 91.381 55.0249 91.6066 55.1583C91.8363 55.3031 92.0697 55.4421 92.3065 55.575C92.5397 55.7003 92.7758 55.8197 93.0149 55.9333C93.2537 56.0504 93.4955 56.1616 93.7399 56.2667C93.9928 56.3732 94.2485 56.4732 94.5065 56.5667C94.7517 56.656 94.999 56.7394 95.2482 56.8167C95.5102 56.8956 95.7742 56.9679 96.0399 57.0333C96.2911 57.1006 96.544 57.1617 96.7982 57.2167C97.0665 57.268 97.336 57.3124 97.6066 57.35C97.8667 57.3925 98.1279 57.4287 98.3899 57.4583C98.6561 57.4817 98.9228 57.4983 99.1899 57.5083C99.4563 57.5233 99.723 57.5316 99.9899 57.5333C100.259 57.5318 100.529 57.5234 100.798 57.5083C101.065 57.4983 101.332 57.4817 101.598 57.4583C101.86 57.4287 102.121 57.3925 102.382 57.35C102.652 57.3124 102.922 57.268 103.19 57.2167C103.441 57.1616 103.691 57.1004 103.94 57.0333C104.208 56.9708 104.475 56.9013 104.74 56.825C104.989 56.7449 105.236 56.6588 105.482 56.5667C105.74 56.4732 105.995 56.3732 106.248 56.2667C106.493 56.1616 106.734 56.0504 106.973 55.9333C107.212 55.8197 107.448 55.7003 107.682 55.575C107.918 55.4421 108.152 55.3031 108.382 55.1583C108.607 55.0249 108.829 54.886 109.048 54.7417C109.269 54.586 109.486 54.4249 109.698 54.2583C109.911 54.0996 110.119 53.9357 110.323 53.7667C110.528 53.5939 110.728 53.4161 110.923 53.2333C111.187 52.9947 111.443 52.7473 111.69 52.4917V52.5L126.523 36.3333C126.634 36.2101 126.757 36.0984 126.89 36C127.147 35.7975 127.456 35.6705 127.782 35.6333L127.79 35.6417ZM127.957 37.0417C121.182 43.225 116.132 51.325 108.582 56.6917C100.815 61.3333 90.1649 58.3083 85.0565 51.1083C80.7899 46.4417 76.6649 41.3583 72.0315 37.2167C69.3316 39.3667 70.6649 43.425 69.2649 46.2C67.5316 47.9167 65.7649 44.6917 64.8815 43.5667C64.1815 42.15 62.2399 41.2083 61.6649 43.1667C60.3066 45.4833 61.3316 49.3333 58.1982 50.3083C50.5399 55.225 47.5566 64.95 48.6232 73.575C48.3732 81.7583 48.0732 91.2083 54.4399 97.4C63.6566 107.233 81.8565 106.133 89.2232 94.7333C89.7066 93.5667 90.4316 92.225 91.3982 91.2333V87.7333C91.3982 87.7167 91.3982 87.7 91.3982 87.6833L88.4816 87.1917C88.3724 87.1713 88.2752 87.1098 88.2101 87.0198C88.145 86.9299 88.1169 86.8184 88.1316 86.7083C88.6236 83.9282 90.0761 81.4092 92.2357 79.5907C94.3954 77.7722 97.125 76.7698 99.9482 76.7583C102.789 76.7463 105.542 77.7381 107.722 79.5586C109.903 81.3791 111.37 83.9113 111.865 86.7083C111.879 86.8196 111.85 86.9322 111.783 87.0223C111.716 87.1125 111.617 87.1732 111.507 87.1917L108.59 87.6917C108.59 87.6944 108.59 87.6972 108.59 87.7V90.8667L108.648 90.875C113.515 103.658 131.382 108.1 142.123 100.275C145.425 97.9157 148.026 94.7054 149.649 90.9855C151.272 87.2657 151.857 83.1755 151.34 79.15C151.457 70.5417 152.423 60.5583 145.898 53.8C144.098 51.55 140.865 50.475 139.548 47.9917C139.09 45.9083 139.207 43.0917 137.165 41.8583C134.582 42.9333 133.99 46.4917 131.098 47.1417C129.432 43.975 130.64 39.6667 127.957 37.0333V37.0417ZM70.1815 53.9C74.5893 53.9022 78.8158 55.6547 81.9318 58.7723C85.0478 61.8898 86.7982 66.1172 86.7982 70.525V80.525C86.7367 83.188 86.0365 85.7973 84.7565 88.1333C82.5075 87.1857 80.2433 86.2745 77.9649 85.4C78.0648 85.2998 78.1621 85.197 78.2565 85.0917C78.3016 85.0422 78.3461 84.9922 78.3899 84.9417C78.5295 84.7859 78.663 84.6247 78.7899 84.4583C78.8237 84.4115 78.8571 84.3643 78.8899 84.3167C79.0073 84.1543 79.1185 83.9875 79.2232 83.8167C79.26 83.7616 79.2961 83.706 79.3316 83.65C79.4267 83.4811 79.5157 83.3088 79.5982 83.1333C79.6296 83.0726 79.6601 83.0115 79.6899 82.95C79.7622 82.7857 79.8289 82.6189 79.8899 82.45C79.9247 82.3645 79.9581 82.2784 79.9899 82.1917C80.0422 82.0321 80.0895 81.8709 80.1316 81.7083C80.1582 81.6171 80.1832 81.5254 80.2066 81.4333C80.2387 81.2842 80.2664 81.1341 80.2899 80.9833C80.3121 80.8643 80.3315 80.7449 80.3482 80.625C80.3775 80.3982 80.397 80.1702 80.4066 79.9417V71.3333C80.4048 71.1107 80.3937 70.8883 80.3732 70.6667C80.3626 70.5358 80.3487 70.4052 80.3316 70.275C80.3154 70.144 80.2959 70.0134 80.2732 69.8833C80.2487 69.7521 80.221 69.6215 80.1899 69.4917C80.1596 69.3659 80.1263 69.2408 80.0899 69.1167C80.0489 68.985 80.0044 68.8544 79.9566 68.725C79.9176 68.6074 79.8759 68.4907 79.8316 68.375C79.7795 68.243 79.7239 68.1124 79.6649 67.9833C79.612 67.8709 79.5564 67.7598 79.4982 67.65C79.4318 67.5316 79.3623 67.4149 79.2899 67.3C79.226 67.1873 79.1593 67.0761 79.0899 66.9667C79.0173 66.8649 78.9422 66.7649 78.8649 66.6667C78.7844 66.5562 78.701 66.4478 78.6149 66.3417C78.5338 66.2452 78.4505 66.1508 78.3649 66.0583C78.2758 65.956 78.1841 65.856 78.0899 65.7583C77.9949 65.667 77.8976 65.5781 77.7982 65.4917C77.7031 65.4032 77.6059 65.317 77.5065 65.2333C77.403 65.1501 77.2974 65.0695 77.1899 64.9917C77.0835 64.9112 76.9752 64.8334 76.8649 64.7583C76.7555 64.6861 76.6444 64.6167 76.5315 64.55C76.422 64.4834 76.3109 64.4195 76.1982 64.3583C76.0802 64.2998 75.9607 64.2442 75.8399 64.1917C75.7136 64.1327 75.5858 64.0772 75.4566 64.025C75.3383 63.9749 75.2188 63.9276 75.0982 63.8833C74.9797 63.8416 74.8602 63.8027 74.7399 63.7667C74.6047 63.7297 74.4685 63.6964 74.3316 63.6667C74.2045 63.6357 74.0767 63.6079 73.9482 63.5833C73.8238 63.5581 73.6987 63.5359 73.5732 63.5167C73.4403 63.4966 73.307 63.4799 73.1732 63.4667C72.9516 63.4462 72.7291 63.4351 72.5066 63.4333C72.3396 63.4392 72.1728 63.4503 72.0065 63.4667C71.8673 63.4769 71.7284 63.4908 71.5899 63.5083C71.47 63.5251 71.3505 63.5445 71.2316 63.5667C71.0892 63.5906 70.9474 63.6184 70.8065 63.65C70.6808 63.6803 70.5557 63.7136 70.4315 63.75C70.3 63.7855 70.1694 63.8244 70.0399 63.8667C69.9108 63.9134 69.783 63.9634 69.6566 64.0167C69.5018 64.0758 69.349 64.1397 69.1982 64.2083C69.3145 64.3141 69.4257 64.4254 69.5315 64.5417C69.5945 64.6067 69.6556 64.6734 69.7149 64.7417C69.7633 64.7962 69.8106 64.8517 69.8566 64.9083C69.9083 64.9765 69.9583 65.0459 70.0066 65.1167C70.0556 65.1876 70.1029 65.2599 70.1482 65.3333C70.1857 65.3964 70.2218 65.4603 70.2565 65.525C70.3031 65.6016 70.3475 65.6794 70.3899 65.7583C70.4221 65.8298 70.4527 65.9021 70.4816 65.975C70.5199 66.0573 70.556 66.1407 70.5899 66.225C70.6136 66.2939 70.6358 66.3634 70.6565 66.4333C70.6867 66.5187 70.7145 66.6048 70.7399 66.6917C70.7615 66.7745 70.7809 66.8578 70.7982 66.9417C70.8169 67.0218 70.8335 67.1024 70.8482 67.1833C70.8625 67.2857 70.8736 67.3886 70.8815 67.4917C70.8881 67.5499 70.8937 67.6082 70.8982 67.6667C70.9021 67.7805 70.9021 67.8945 70.8982 68.0083C70.8991 68.0639 70.8991 68.1194 70.8982 68.175C70.8948 68.2585 70.8892 68.3418 70.8815 68.425C70.8755 68.5113 70.8671 68.5974 70.8566 68.6833C70.8468 68.7502 70.8357 68.8169 70.8232 68.8833C70.8065 68.9783 70.7871 69.0728 70.7649 69.1667C70.7446 69.245 70.7223 69.3228 70.6982 69.4C70.6726 69.484 70.6449 69.5674 70.6149 69.65C70.5838 69.7342 70.5505 69.8176 70.5149 69.9C70.4886 69.9673 70.4608 70.0339 70.4315 70.1C70.3895 70.1846 70.345 70.2679 70.2982 70.35C70.2636 70.4175 70.2275 70.4842 70.1899 70.55C70.1368 70.635 70.0813 70.7184 70.0232 70.8C69.9908 70.8506 69.9575 70.9006 69.9232 70.95C69.8541 71.0413 69.7818 71.1303 69.7066 71.2167C69.6711 71.2589 69.635 71.3006 69.5982 71.3417C69.544 71.3985 69.4884 71.4541 69.4315 71.5083C69.3668 71.5769 69.3001 71.6436 69.2315 71.7083C69.1769 71.7511 69.1213 71.7928 69.0649 71.8333C68.997 71.8935 68.9276 71.9519 68.8565 72.0083C68.7829 72.0603 68.7079 72.1104 68.6316 72.1583C68.5659 72.2016 68.4992 72.2432 68.4315 72.2833C68.3684 72.318 68.3045 72.3514 68.2399 72.3833C68.1578 72.4301 68.0745 72.4746 67.9899 72.5167C67.8966 72.5556 67.8021 72.5918 67.7066 72.625C67.6514 72.6482 67.5958 72.6704 67.5399 72.6917C67.4354 72.7257 67.3298 72.7563 67.2232 72.7833C67.168 72.801 67.1124 72.8176 67.0565 72.8333C66.9626 72.8527 66.8681 72.8694 66.7732 72.8833C66.7013 72.8988 66.6291 72.9127 66.5565 72.925C66.4457 72.937 66.3346 72.9454 66.2232 72.95C66.1733 72.9563 66.1233 72.9619 66.0732 72.9667C65.976 72.9695 65.8788 72.9695 65.7815 72.9667C65.7038 72.9685 65.626 72.9685 65.5482 72.9667C65.4618 72.955 65.3756 72.9411 65.2899 72.925C65.2175 72.9182 65.1452 72.9099 65.0732 72.9C64.9162 72.8741 64.7604 72.8407 64.6066 72.8V79.9583C64.6143 80.0919 64.6254 80.2253 64.6399 80.3583C64.6537 80.5311 64.6731 80.7035 64.6982 80.875C61.0312 79.7838 57.3162 78.8606 53.5649 78.1083V70.5417C53.5561 68.3553 53.9803 66.1888 54.8132 64.1672C55.6461 62.1456 56.8711 60.309 58.4175 58.7634C59.9639 57.2177 61.8011 55.9937 63.8231 55.1618C65.8451 54.3299 68.0118 53.9067 70.1982 53.9167L70.1815 53.9ZM129.815 53.9C131.999 53.8989 134.162 54.3281 136.18 55.1631C138.198 55.9981 140.031 57.2225 141.576 58.7664C143.121 60.3103 144.346 62.1434 145.182 64.161C146.018 66.1785 146.448 68.3411 146.448 70.525V78.1C142.907 78.8083 139.198 79.725 135.315 80.875C135.341 80.6924 135.36 80.509 135.373 80.325C135.387 80.1975 135.399 80.0697 135.407 79.9417V71.3333C135.405 71.108 135.394 70.8828 135.373 70.6583C135.36 70.5302 135.343 70.4023 135.323 70.275C135.307 70.144 135.288 70.0134 135.265 69.8833C135.24 69.7549 135.212 69.6271 135.182 69.5C135.152 69.3658 135.118 69.2324 135.082 69.1C135.045 68.9852 135.006 68.8713 134.965 68.7583C134.918 68.6237 134.868 68.4903 134.815 68.3583C134.765 68.2376 134.712 68.1181 134.657 68C134.604 67.882 134.548 67.7653 134.49 67.65C134.426 67.5373 134.359 67.4261 134.29 67.3167C134.223 67.1982 134.154 67.0815 134.082 66.9667C134.007 66.8564 133.929 66.748 133.848 66.6417C133.773 66.5398 133.695 66.4398 133.615 66.3417C133.529 66.2366 133.44 66.1338 133.348 66.0333C133.262 65.9339 133.173 65.8367 133.082 65.7417C132.984 65.6474 132.884 65.5557 132.782 65.4667C132.692 65.3812 132.6 65.2978 132.507 65.2167C132.398 65.1304 132.286 65.0471 132.173 64.9667C132.072 64.892 131.969 64.8198 131.865 64.75C131.75 64.6748 131.633 64.6025 131.515 64.5333C131.405 64.4668 131.294 64.4028 131.182 64.3417C131.066 64.2833 130.95 64.2277 130.832 64.175C130.705 64.1161 130.577 64.0605 130.448 64.0083C130.338 63.9614 130.227 63.9169 130.115 63.875C129.983 63.8298 129.849 63.7881 129.715 63.75C129.588 63.7135 129.46 63.6801 129.332 63.65C129.202 63.6189 129.071 63.5911 128.94 63.5667C128.81 63.544 128.679 63.5245 128.548 63.5083C128.424 63.4887 128.299 63.472 128.173 63.4583C127.949 63.4376 127.724 63.4265 127.498 63.425C127.34 63.4314 127.181 63.4425 127.023 63.4583C126.898 63.4665 126.773 63.4776 126.648 63.4917C126.503 63.5099 126.359 63.5322 126.215 63.5583C126.092 63.5777 125.97 63.5999 125.848 63.625C125.72 63.6552 125.592 63.6885 125.465 63.725C125.333 63.7605 125.203 63.7994 125.073 63.8417C124.953 63.8832 124.833 63.9277 124.715 63.975C124.589 64.0218 124.464 64.0718 124.34 64.125C124.213 64.1856 124.088 64.2495 123.965 64.3167C123.83 64.3796 123.696 64.4463 123.565 64.5167C123.682 64.636 123.793 64.7612 123.898 64.8917C123.997 65.0259 124.089 65.1649 124.173 65.3083C124.264 65.4485 124.347 65.5931 124.423 65.7417C124.497 65.891 124.564 66.044 124.623 66.2C124.681 66.3557 124.731 66.5143 124.773 66.675C124.789 66.7441 124.802 66.8136 124.815 66.8833C124.837 66.9772 124.857 67.0717 124.873 67.1667C124.891 67.2828 124.905 67.3995 124.915 67.5167C124.921 67.5638 124.927 67.611 124.932 67.6583C124.932 67.6611 124.932 67.6639 124.932 67.6667C124.94 67.8332 124.94 68.0001 124.932 68.1667C124.926 68.3339 124.912 68.5008 124.89 68.6667C124.88 68.728 124.869 68.7891 124.857 68.85C124.84 68.9506 124.821 69.0506 124.798 69.15C124.759 69.3106 124.712 69.4691 124.657 69.625C124.657 69.6278 124.657 69.6306 124.657 69.6333C124.6 69.7892 124.536 69.9422 124.465 70.0917C124.395 70.2427 124.317 70.3901 124.232 70.5333C124.147 70.6767 124.055 70.8158 123.957 70.95C123.855 71.0831 123.746 71.2111 123.632 71.3333C123.521 71.4557 123.404 71.5725 123.282 71.6833C123.159 71.7952 123.031 71.9009 122.898 72C122.764 72.0985 122.625 72.1903 122.482 72.275C122.479 72.275 122.476 72.275 122.473 72.275C122.33 72.3573 122.182 72.4323 122.032 72.5C121.882 72.5714 121.729 72.6354 121.573 72.6917C121.414 72.7442 121.253 72.7887 121.09 72.825C121.001 72.8441 120.913 72.8607 120.823 72.875C120.584 72.9204 120.342 72.9482 120.098 72.9583C119.932 72.9667 119.765 72.9667 119.598 72.9583V79.9417C119.607 80.1757 119.627 80.4093 119.657 80.6417C119.673 80.7588 119.693 80.8754 119.715 80.9917C119.738 81.1424 119.766 81.2925 119.798 81.4417C119.824 81.531 119.852 81.6199 119.882 81.7083C119.921 81.8764 119.965 82.0432 120.015 82.2083C120.044 82.2894 120.075 82.3699 120.107 82.45C120.17 82.619 120.24 82.7858 120.315 82.95C120.342 83.0115 120.37 83.0726 120.398 83.1333C120.486 83.3118 120.581 83.4869 120.682 83.6583C120.712 83.7087 120.742 83.7587 120.773 83.8083C120.88 83.9878 120.994 84.1629 121.115 84.3333C121.142 84.3669 121.17 84.4002 121.198 84.4333C121.335 84.6145 121.48 84.7896 121.632 84.9583C121.654 84.9807 121.676 85.0029 121.698 85.025C121.813 85.1567 121.933 85.2845 122.057 85.4083C119.823 86.2667 117.557 87.1833 115.265 88.1583C113.975 85.8163 113.269 83.1979 113.207 80.525V70.525C113.197 68.339 113.62 66.1727 114.452 64.1512C115.284 62.1296 116.508 60.293 118.054 58.7472C119.6 57.2015 121.436 55.9772 123.458 55.1453C125.479 54.3133 127.646 53.8901 129.832 53.9H129.815ZM100.29 77.6667C99.9732 77.6667 99.6482 77.6667 99.3316 77.6917C96.9252 77.8544 94.6348 78.7863 92.7983 80.3497C90.9618 81.9132 89.6763 84.0254 89.1316 86.375L99.9732 88.025L105.707 87.125L110.732 85.975C109.648 81.2667 105.065 77.7833 100.29 77.6667ZM107.457 87.5333C106.757 87.4917 107.382 88.7167 107.257 89.3167C107.34 93.0917 107.465 96.9167 107.057 100.667C105.865 105.283 99.6232 107.633 95.8065 104.642C92.9982 102.683 92.2649 98.9417 92.7149 95.7417C92.7066 93.075 92.5482 90.4 92.8316 87.7417C91.4899 87.025 92.3316 88.625 92.1149 89.3583C92.1982 94.4333 91.7066 99.575 92.4899 104.6C94.0399 109.583 101.048 111.725 104.99 108.183C107.573 106.1 108.315 102.475 107.907 99.2917C107.873 95.4083 108.007 91.5167 107.832 87.6333C107.71 87.5787 107.581 87.5449 107.448 87.5333H107.457ZM106.257 87.9167C106.07 87.9372 105.887 87.9735 105.707 88.025C105.399 88.1366 105.088 88.2367 104.773 88.325L104.523 88.3917C104.289 88.4551 104.053 88.5107 103.815 88.5583L103.582 88.6083C102.84 88.7522 102.087 88.8358 101.332 88.8583L101.04 88.875C100.629 88.8841 100.218 88.8841 99.8065 88.875H99.6732C99.1972 88.8546 98.7219 88.8184 98.2482 88.7667C98.1982 88.7667 98.1482 88.7667 98.1065 88.75C97.3292 88.6628 96.5539 88.5572 95.7816 88.4333L95.1815 88.35L93.6649 88.075C93.4701 88.6771 93.3718 89.3035 93.3732 89.9333V98.9917C93.3915 100.656 94.0955 102.246 95.334 103.423C96.5726 104.599 98.2471 105.267 99.9982 105.283C100.868 105.283 101.729 105.121 102.532 104.804C103.336 104.488 104.065 104.024 104.68 103.44C105.295 102.856 105.782 102.162 106.114 101.399C106.446 100.635 106.616 99.8175 106.615 98.9917V89.9167C106.613 89.2276 106.492 88.5435 106.257 87.8917V87.9167ZM106.59 99.3083C106.578 99.4059 106.564 99.5031 106.548 99.6C106.561 99.503 106.573 99.4058 106.582 99.3083H106.59ZM106.482 99.9917C106.464 100.075 106.444 100.159 106.423 100.242C106.444 100.159 106.464 100.075 106.482 99.9917ZM106.315 100.617C106.289 100.701 106.261 100.784 106.232 100.867C106.261 100.784 106.289 100.701 106.315 100.617ZM106.082 101.275C106.055 101.337 106.027 101.398 105.998 101.458C106.027 101.398 106.055 101.337 106.082 101.275ZM105.79 101.867C105.757 101.923 105.724 101.978 105.69 102.033C105.724 101.978 105.757 101.923 105.79 101.867ZM105.423 102.45C105.396 102.489 105.368 102.528 105.34 102.567C105.368 102.528 105.396 102.489 105.423 102.45ZM105.007 102.983C104.979 103.011 104.951 103.039 104.923 103.067C104.951 103.039 104.979 103.011 105.007 102.983ZM104.565 103.45C104.548 103.467 104.532 103.483 104.515 103.5C104.532 103.483 104.548 103.467 104.565 103.45ZM79.0149 125.283C79.0537 125.281 79.0927 125.281 79.1316 125.283H94.3232C94.5099 125.275 94.6959 125.312 94.8655 125.39C95.035 125.469 95.1832 125.587 95.2975 125.735C95.4119 125.883 95.489 126.056 95.5225 126.24C95.556 126.424 95.5448 126.613 95.4899 126.792C94.3232 130.292 90.7149 132.7 86.6899 132.725C84.7975 132.774 82.9375 132.228 81.3722 131.163C79.8068 130.099 78.615 128.57 77.9649 126.792C77.8954 126.622 77.8694 126.438 77.8892 126.256C77.909 126.073 77.974 125.899 78.0783 125.748C78.1826 125.598 78.3229 125.475 78.4865 125.393C78.6501 125.31 78.8317 125.27 79.0149 125.275V125.283ZM105.707 125.283C105.72 125.283 105.734 125.283 105.748 125.283H120.948C121.133 125.276 121.317 125.313 121.485 125.39C121.653 125.468 121.8 125.585 121.914 125.73C122.028 125.876 122.105 126.047 122.14 126.228C122.175 126.41 122.167 126.597 122.115 126.775C120.948 130.258 117.348 132.692 113.282 132.692C111.399 132.736 109.549 132.191 107.991 131.133C106.433 130.076 105.244 128.558 104.59 126.792C104.545 126.618 104.539 126.436 104.574 126.26C104.608 126.084 104.682 125.918 104.789 125.774C104.896 125.63 105.034 125.512 105.193 125.429C105.352 125.345 105.527 125.298 105.707 125.292V125.283ZM92.3732 138.183C92.3871 138.183 92.401 138.183 92.4149 138.183H107.615C107.802 138.176 107.988 138.214 108.157 138.293C108.326 138.373 108.474 138.492 108.588 138.641C108.701 138.79 108.777 138.964 108.81 139.148C108.842 139.332 108.829 139.522 108.773 139.7C107.648 143.225 104.04 145.625 99.9732 145.625C98.0832 145.673 96.2258 145.127 94.6623 144.064C93.0987 143.001 91.9076 141.475 91.2566 139.7C91.2013 139.524 91.1884 139.338 91.219 139.156C91.2495 138.975 91.3227 138.803 91.4324 138.655C91.5422 138.507 91.6854 138.387 91.8504 138.305C92.0153 138.223 92.1974 138.181 92.3816 138.183H92.3732ZM37.0816 151.967C36.0448 151.993 35.0239 152.228 34.0792 152.656C33.1345 153.083 32.2852 153.696 31.5816 154.458V154.442C30.1763 155.958 29.4243 157.966 29.4882 160.033C29.5521 162.099 30.4269 164.057 31.9232 165.483L40.9899 173.983C42.5104 175.344 44.5028 176.057 46.5415 175.968C48.5801 175.88 50.5034 174.998 51.9005 173.51C53.2975 172.023 54.0576 170.048 54.0182 168.008C53.9789 165.968 53.1433 164.024 51.6899 162.592L42.6232 154.1C41.8848 153.398 41.0154 152.848 40.0646 152.482C39.1137 152.116 38.1001 151.941 37.0816 151.967ZM163.04 151.967C162.003 151.926 160.969 152.095 159.999 152.461C159.028 152.827 158.141 153.385 157.39 154.1L148.315 162.592C146.803 164.012 145.917 165.974 145.853 168.047C145.788 170.12 146.549 172.134 147.969 173.646C149.389 175.158 151.351 176.043 153.425 176.108C155.498 176.173 157.511 175.412 159.023 173.992L168.082 165.5C169.579 164.075 170.455 162.117 170.521 160.051C170.586 157.985 169.836 155.976 168.432 154.458C167.741 153.709 166.909 153.104 165.984 152.676C165.058 152.249 164.058 152.008 163.04 151.967Z" fill="white"/>
</svg>
