<svg width="200" height="200" viewBox="0 0 200 200" fill="none" xmlns="http://www.w3.org/2000/svg">
<path d="M50.4667 101.1V60.1H60.4667V85.3166C65.3833 79.4583 72.15 77.7666 78.8167 77.7666C89.9833 77.7666 102.383 85.3 102.383 101.558C102.383 103.5 102.258 105.367 101.883 107.125C103.883 99.1833 112.5 96.25 126.017 95.925C130.267 95.775 135.142 95.775 139.017 95.775V94.65C139.017 87.275 134.383 84.2833 126.267 84.2833C120.267 84.2833 115.892 86.7833 115.392 91.0333H104.767C105.9 80.2833 117.267 77.5333 127.15 77.5333C136.017 77.5333 143.775 79.7833 147.275 86.0333L143.642 79.0333H155.392L172.517 113.408L189.642 79.025H200L169 139.9H157.783L166.7 122.9L147.283 86.4C148.367 88.525 148.95 91.025 148.95 94.15V114.65C148.95 117.533 149.033 120.4 149.283 123.025H140C139.748 120.909 139.62 118.781 139.617 116.65C134.592 122.767 128.617 124.65 120.283 124.65C107.95 124.65 101.35 118.15 101.35 110.525C101.35 109.275 101.475 108.158 101.658 107.15C99.1583 117.533 90.325 124.533 78.6 124.533C71.35 124.533 64.4833 121.908 60.2667 116.783C60.2667 118.783 60.1417 120.9 59.9333 122.9H50.1C50.2667 119.65 50.4333 115.775 50.4333 112.525V103.775H10.1833C10.725 112.9 17 118.275 25.625 118.275C31.6083 118.275 36.9167 115.775 38.6917 110.525H49.025C47.025 121.275 35.6083 124.9 25.775 124.9C7.91667 125.075 0 115.183 0 101.933C0 87.3166 8.18333 77.6833 25.9667 77.6833C40.0333 77.6833 50.3833 85.0666 50.4667 101.067V101.108V101.1ZM126.608 102.625C117.483 102.908 111.858 104.567 111.858 110.542C111.858 114.417 114.858 118.625 122.733 118.625C133.233 118.625 138.858 112.875 138.858 103.508V102.425C135.108 102.425 130.608 102.475 126.492 102.608H126.592L126.608 102.625ZM76.1083 118.25C85.3583 118.25 91.7417 111.533 91.7417 101.417C91.7417 91.3 85.3417 84.5833 75.9667 84.5833C66.7167 84.5833 60.2167 91.3 60.2167 101.417C60.2167 111.533 66.5917 118.25 75.8417 118.25H76.0917H76.1083ZM39.8583 97.3C39.4917 87.925 32.7417 84.4166 25.4833 84.4166C17.6167 84.4166 11.3667 88.3666 10.3583 97.3H39.8583Z" fill="white"/>
</svg>
