<svg width="200" height="200" viewBox="0 0 200 200" fill="none" xmlns="http://www.w3.org/2000/svg">
<path d="M72.8 67.0667C67.95 67.0667 64.175 70.9916 64.175 75.85L64.3667 124.142C64.3667 128.992 68.075 132.925 72.9417 132.925H73.9417C78.8 132.925 82.725 128.992 82.725 124.142L82.5333 75.85C82.5333 70.9916 78.6 67.0667 73.7417 67.0667H72.8ZM98.3917 67.125C93.6083 67.125 89.725 71.025 89.725 75.825V119.492C89.725 126.033 96.1667 132.342 102.567 132.342H136.383C141.192 132.342 144.425 128.842 147.15 124.05L164.75 93.8666C164.9 93.5333 165.192 93.1166 165.525 93.1166C165.892 93.1166 166.108 93.5333 166.292 93.85L177.8 112.317C178.283 113.1 178.367 113.492 178.067 114.192C177.8 114.833 177.158 114.967 176.15 114.967H159.992C155.175 114.967 151.292 118.858 151.292 123.667V124.208C151.292 129.017 155.175 132.342 159.992 132.342H186.35C192.767 132.342 200 126.242 200 118.258C200 113.2 199.017 111.408 194.8 104.55L175.283 72.7667C172.992 69.0833 169.867 67.3 165.925 67.3C161.842 67.3 158.392 69.2083 156.233 72.7667L133.633 110.233C132.092 112.8 130.317 113.85 127.383 113.85H110.567C110.253 113.862 109.94 113.809 109.648 113.694C109.356 113.58 109.09 113.407 108.868 113.186C108.645 112.965 108.47 112.7 108.354 112.409C108.237 112.118 108.182 111.805 108.192 111.492L108.208 75.825C108.208 71.025 104.308 67.125 99.5083 67.125H98.3917ZM8.79167 68.3166C3.94167 68.3166 0 72.0333 0 76.8833V77.5C0 82.3667 3.94167 86.2916 8.79167 86.2916H49.9167C54.7583 86.2916 58.7083 82.3667 58.7083 77.5V76.95C58.704 75.8041 58.4725 74.6704 58.0272 73.6145C57.5819 72.5587 56.9317 71.6016 56.114 70.7987C55.2964 69.9958 54.3277 69.3631 53.2639 68.937C52.2002 68.511 51.0625 68.3001 49.9167 68.3166H8.79167ZM10.35 91.8083C4.31667 91.8083 0.00833333 96.5417 0.00833333 102.15L0 124.25C0 129.058 3.89167 132.933 8.68333 132.933H9.8C10.9409 132.936 12.0711 132.712 13.1256 132.277C14.1801 131.841 15.1382 131.202 15.9449 130.395C16.7517 129.588 17.3912 128.63 17.8268 127.576C18.2624 126.521 18.4855 125.391 18.4833 124.25V112.1C18.4833 110.792 19.5333 109.733 20.8417 109.733H45.6667C50.4583 109.733 54.3583 105.858 54.3583 101.05V100.5C54.3583 95.7 50.4583 91.8083 45.6667 91.8083H10.35Z" fill="white"/>
</svg>
