<svg width="200" height="200" viewBox="0 0 200 200" fill="none" xmlns="http://www.w3.org/2000/svg">
<g clip-path="url(#clip0_3730_11963)">
<path d="M182.441 68.5833C147.55 68.5916 138.7 88.2917 137.275 101.667C135.658 116.683 146.05 131.417 171.666 131.417C182.45 131.417 189.5 129.542 192 128.75C192.31 128.652 192.588 128.472 192.804 128.228C193.02 127.985 193.165 127.687 193.225 127.367L194.666 119.783C194.716 119.523 194.697 119.254 194.612 119.003C194.527 118.751 194.378 118.527 194.179 118.35C193.981 118.174 193.741 118.052 193.481 117.997C193.222 117.941 192.953 117.954 192.7 118.033C189.9 118.917 184.95 120.133 178.658 120.133C166.416 120.133 157.575 112.783 158.7 100.133C159.783 87.8833 168.041 78.55 179.408 78.55C186.241 78.55 189.266 82.1333 189.041 86.9083V87.1833C189.031 87.3895 189.063 87.5956 189.134 87.7893C189.206 87.9829 189.316 88.1602 189.457 88.3104C189.599 88.4605 189.769 88.5806 189.959 88.6633C190.148 88.746 190.352 88.7897 190.558 88.7916H195.2C195.916 88.7916 196.533 88.2917 196.7 87.6L199.95 72.9333C200.053 72.4864 199.981 72.017 199.748 71.6216C199.516 71.2263 199.14 70.9352 198.7 70.8083C193.41 69.3302 187.942 68.5843 182.45 68.5916L182.441 68.5833ZM14.4663 69.55C14.0882 69.5502 13.7213 69.679 13.426 69.9152C13.1307 70.1514 12.9245 70.4811 12.8413 70.85L11.9413 74.8833C11.8543 75.2801 11.9167 75.6951 12.1166 76.0488C12.3165 76.4024 12.6398 76.6699 13.0247 76.8L13.2997 76.8833C15.033 77.5666 17.0497 79.1 16.1997 83.1167L9.59967 113.283C7.87467 121.508 5.083 123.2 2.433 123.5H2.34967C1.9981 123.534 1.66658 123.68 1.40296 123.915C1.13934 124.15 0.957264 124.463 0.883001 124.808L0.033001 128.675C-0.017978 128.908 -0.0161232 129.15 0.0384294 129.382C0.092982 129.615 0.19885 129.832 0.348273 130.018C0.497696 130.204 0.686886 130.355 0.901978 130.458C1.11707 130.562 1.35261 130.616 1.59133 130.617H30.6497C31.358 130.617 31.9747 130.117 32.1247 129.433L33.1247 124.908C33.2016 124.553 33.15 124.183 32.979 123.862C32.8081 123.542 32.529 123.292 32.1913 123.158L32.008 123.075C30.533 122.492 28.5247 121.208 29.0413 118.825L32.4163 103.408C43.9913 124.533 47.8163 130.625 61.6997 130.617H74.2497C74.5936 130.617 74.9274 130.5 75.1956 130.285C75.4639 130.07 75.6506 129.769 75.7247 129.433L76.5997 125.517C76.6529 125.282 76.6531 125.038 76.6004 124.803C76.5478 124.568 76.4435 124.347 76.2951 124.157C76.1468 123.967 75.9581 123.813 75.7427 123.705C75.5272 123.597 75.2905 123.539 75.0497 123.533C71.9163 123.483 70.383 122.758 67.258 118.742L51.158 96.9583L72.0747 79.5583C74.883 77.3583 78.308 76.7416 80.208 76.4917L80.3913 76.475C80.7155 76.444 81.0215 76.3112 81.2655 76.0957C81.5095 75.8801 81.679 75.5928 81.7497 75.275L82.608 71.4083C82.6566 71.1844 82.6543 70.9525 82.6015 70.7296C82.5487 70.5067 82.4465 70.2985 82.3027 70.1202C82.1588 69.942 81.9768 69.7982 81.77 69.6995C81.5633 69.6009 81.3371 69.5498 81.108 69.55H55.9413C55.5668 69.552 55.2039 69.6808 54.9119 69.9153C54.6198 70.1499 54.4158 70.4764 54.333 70.8417L53.483 74.675C53.3916 75.0863 53.4595 75.517 53.6728 75.8803C53.8862 76.2437 54.2293 76.5127 54.633 76.6333C56.1163 77.2083 56.4413 78.6333 55.158 79.6833L33.7163 97.5L37.383 80.7167C37.6321 79.7513 38.1304 78.8683 38.828 78.1561C39.5256 77.4439 40.398 76.9274 41.358 76.6583L41.5663 76.5917C41.8451 76.5046 42.096 76.3455 42.2935 76.1304C42.4911 75.9153 42.6283 75.6518 42.6913 75.3666L43.5747 71.3917C43.6233 71.1711 43.6218 70.9424 43.5703 70.7225C43.5188 70.5026 43.4185 70.2971 43.277 70.1211C43.1354 69.9452 42.9561 69.8032 42.7523 69.7058C42.5486 69.6084 42.3255 69.558 42.0997 69.5583L14.4663 69.55ZM88.4663 69.55C88.0896 69.5521 87.7247 69.6817 87.4311 69.9178C87.1375 70.1539 86.9325 70.4825 86.8497 70.85L85.958 74.875C85.8726 75.2532 85.9289 75.6496 86.1163 75.9891C86.3037 76.3285 86.6091 76.5874 86.9747 76.7167L87.1413 76.7833C88.8413 77.425 91.1997 79.0667 90.1747 83.1L80.0913 128.767C80.0413 128.989 80.0419 129.22 80.0932 129.442C80.1445 129.663 80.2451 129.871 80.3876 130.049C80.5301 130.226 80.7109 130.37 80.9164 130.468C81.1219 130.566 81.3469 130.617 81.5747 130.617H104.716C105.433 130.617 106.05 130.117 106.208 129.425L107.208 124.867C107.28 124.542 107.238 124.203 107.089 123.905C106.94 123.608 106.694 123.371 106.391 123.233C106.316 123.198 106.241 123.162 106.166 123.125C104.7 122.408 102.516 120.75 103.25 117.542C103.325 117.125 105.5 107.208 105.5 107.208H125.183C125.9 107.208 126.516 106.708 126.683 106.017L128.525 97.6833C128.576 97.4587 128.576 97.2253 128.525 97.0007C128.473 96.776 128.372 96.566 128.227 96.3863C128.083 96.2067 127.9 96.0621 127.691 95.9634C127.483 95.8648 127.255 95.8146 127.025 95.8167H108.025L111.583 79.65L124.85 79.625C129.141 79.625 130.45 81.875 130.2 85.6917L130.183 85.8917C130.158 86.1065 130.179 86.3242 130.245 86.5303C130.31 86.7365 130.418 86.9264 130.562 87.0878C130.706 87.2491 130.883 87.3782 131.08 87.4664C131.278 87.5547 131.492 87.6002 131.708 87.6H136.6C137.316 87.6 137.933 87.1 138.083 86.4L141.416 71.4C141.463 71.1767 141.46 70.9457 141.407 70.7238C141.353 70.502 141.251 70.2949 141.107 70.1176C140.963 69.9404 140.782 69.7974 140.576 69.6992C140.37 69.601 140.145 69.55 139.916 69.55H88.4663Z" fill="white"/>
</g>
<defs>
<clipPath id="clip0_3730_11963">
<rect width="200" height="200" fill="white"/>
</clipPath>
</defs>
</svg>
