<svg width="200" height="200" viewBox="0 0 200 200" fill="none" xmlns="http://www.w3.org/2000/svg">
<path d="M95.6833 139.6C95.6 145.333 91.0167 149.95 85.3667 149.95C79.625 149.95 75.1167 145.442 75 139.7H74.8667V87.675H75V87.4333C75 81.6583 79.6333 76.9667 85.3083 76.9667C90.9833 76.9667 95.6083 81.6583 95.6083 87.45V87.825H95.7417V139.7H95.6083L95.6833 139.6ZM188.492 98.8583C194.742 98.8583 200 104.008 200 110.333C200 116.667 194.742 121.792 188.492 121.792C182.108 121.792 176.867 116.667 176.867 110.3C176.867 103.917 181.992 98.7917 188.358 98.7917L188.492 98.8583ZM171.125 133.742C172.133 135.367 172.733 137.342 172.733 139.458C172.733 145.317 168.125 149.958 162.367 149.958C158.508 149.958 155.125 147.825 153.367 144.7L136.258 121.817L131 126.7V140.325H130.883C130.558 145.758 126.133 150.058 120.675 150.058C115.058 150.058 110.5 145.45 110.5 139.742V139.533H110.367V60.7833H110.592V60.3917C110.592 54.6417 115.183 49.95 120.842 49.95C126.458 49.95 131.05 54.6333 131.05 60.3917V60.975H131.183L131.267 99.2833L150.525 80.4417C152.433 78.3167 155.183 77.0667 158.258 77.0667C164 77.0667 168.658 81.8167 168.658 87.5667C168.658 90.45 167.55 92.95 165.792 94.825L165.892 94.95L152.383 108.325L171.392 133.833L171.258 133.967L171.125 133.742ZM60.7417 133.742C61.7417 135.367 62.3667 137.342 62.3667 139.458C62.3667 145.317 57.7417 149.958 52 149.958C48.1167 149.958 44.7417 147.825 42.9917 144.7L25.875 121.817L20.625 126.7V140.292H20.5C20.2 145.742 15.75 150.042 10.325 150.042C4.69167 150.042 0.116667 145.417 0.116667 139.725V139.5H0V60.75H0.258333C0.225 60.625 0.225 60.5083 0.225 60.3833C0.225 54.6333 4.81667 49.95 10.475 49.95C16.1 49.95 20.6833 54.6083 20.6833 60.3667V60.95H20.8167L20.9 99.2833L40.1583 80.4417C42.075 78.3167 44.8417 77.0667 47.9167 77.0667C53.6417 77.0667 58.2917 81.8167 58.2917 87.5667C58.2917 90.3167 57.2 92.95 55.4083 94.825L55.5417 94.95L41.9833 108.325L60.9083 133.833L60.775 133.967L60.7417 133.742Z" fill="white"/>
</svg>
