<svg width="200" height="200" viewBox="0 0 200 200" fill="none" xmlns="http://www.w3.org/2000/svg">
<path d="M141.967 128.55H141.908C140.8 128.817 139.883 128.167 140.142 127.658C141.158 125.325 142.375 121.992 142.592 121.125C143.6 117.65 143.225 115.258 140.15 112.692C138.317 111.192 136.258 109.758 134.4 108.433C133.525 107.65 134.025 106.892 134.3 106.625C134.833 106.092 135.5 105.65 136.017 105.25C137.517 104.125 138.442 104.275 139.8 104.417C141.9 104.7 143.992 105.008 146.083 105.375C148.108 105.792 148.525 105.05 149.017 103.633L150.2 100.092C150.925 98.0583 149.95 97.6083 148.45 97.575L128.508 96.8C126.825 96.6917 126.15 97.2 125.533 97.6167C122.533 99.7833 119.533 101.933 116.525 104.092C114.967 105.142 115.633 105.858 116.025 106.575L117.708 109.333C119.058 111.533 118.542 112.142 117.367 113.425C116.467 114.342 115.483 115.175 114.45 115.917L114.092 116.167C111.008 118.35 107.842 119.333 105.142 119.792C98.675 120.683 92.6 120.817 87.2417 120.908C75.3362 121.081 63.4318 120.5 51.6 119.167C51.1439 119.108 50.6808 119.196 50.2789 119.42C49.8769 119.643 49.5572 119.99 49.3667 120.408L47.5333 124.408C47.4112 124.67 47.1946 124.875 46.9272 124.983C46.6597 125.092 46.3612 125.095 46.0917 124.992C29.0083 118.917 18.2333 109.992 18.2333 100.05C18.2333 86.3083 38.7917 74.5083 68.125 69.4667C68.725 69.35 69.0667 69.5917 69.2083 69.7167C69.85 70.2583 70.5 70.8 71.125 71.3667C71.5333 71.7167 71.4417 72.075 71.35 72.3667L55.6917 106.575L53.1667 112.083C52.6333 113.433 53.7917 113.858 54.1917 113.858C64.9 114.408 75.4083 114.217 84.9833 113.275C95.4833 112.35 102.083 110.083 110.233 105.092C116.502 101.231 122.451 96.8759 128.025 92.0667C131.125 89.2917 132.725 87.7417 134.733 85.225C138.242 80.7083 138.933 76.225 136.175 71.1583C135.875 70.4583 136.675 70.3667 136.975 70.4083C163.592 75.8833 181.842 87.1083 181.842 100.05C181.842 112.158 165.842 122.758 141.967 128.55ZM76.125 75.9833C76.8167 76.6667 77.325 77.2 77.975 77.8833C79.6833 79.825 81.0417 81.575 80.9417 84.9C80.8917 87.0167 79.8833 89.5833 78.4583 92.0667C77.0417 94.6 75.35 96.975 73.4417 99.15C70.65 102.483 67.8 103.933 64.025 104.892C63.3417 105.025 63.2167 104.442 63.3583 104.083L75.125 76.175C75.4667 75.5667 75.975 75.85 76.125 75.9833ZM100.342 73.5417C99.4329 71.0641 98.0068 68.8085 96.1583 66.925C95.97 66.7424 95.7972 66.5445 95.6417 66.3333C95.525 66.1333 95.3083 65.7667 95.5583 65.4417C95.8917 65.0583 96.3167 65.2333 96.4667 65.3167C97.5833 65.85 101.4 68 103.45 73.5167C105.108 77.9667 104.033 82.3833 99.8583 88.275C94.3833 95.9917 89.6667 101.8 78.8083 106.167C74.0667 108.083 66.3083 108.792 62.5583 108.792C61.2583 108.808 60.5167 108.65 60.3 108.158C60.2475 108.063 60.2214 107.956 60.2244 107.848C60.2273 107.739 60.2592 107.634 60.3167 107.542C60.6667 107.075 61.1917 107.15 61.65 107.15C65.875 107.15 73.475 105.708 78.0333 103.575C87.6167 99.0833 92.4 93.0917 96.475 87.3417C99.225 83.4833 102.125 78.425 100.342 73.5417ZM117.342 74.9583C116.992 72.4833 115.308 70.3333 114.2 68.9083L113.325 67.7833C113.042 67.45 112.725 67.075 113.075 66.7C113.633 66.1333 114.517 66.8083 114.7 66.925C116.533 68.1583 119.725 70.9417 120.558 75.6917C121.267 79.6167 120.625 85.3417 109.392 94.7833C108.783 95.2833 108.175 95.8167 107.533 96.3833C102.833 100.467 96.9917 105.558 84.1 109.8C79.6333 111.258 71.175 112.325 63.9833 112.325C62.675 112.325 61.475 112.283 60.4 112.208C59.2 112.125 58.8417 111.708 58.75 111.375C58.7231 111.285 58.7174 111.19 58.7333 111.098C58.7492 111.005 58.7863 110.917 58.8417 110.842C59.0083 110.625 59.3417 110.492 59.7583 110.483C71.775 110.233 75.925 109.483 83.1167 107.183C93.825 103.75 101.617 97.4083 107.192 92.2667C118.342 81.9917 117.692 77.4167 117.35 74.9583M100 58.5C44.7667 58.5 0 77.075 0 100C0 122.917 44.7667 141.5 100 141.5C155.233 141.5 200 122.917 200 100C200 77.0833 155.233 58.5 100 58.5Z" fill="white"/>
</svg>
