<svg width="200" height="200" viewBox="0 0 200 200" fill="none" xmlns="http://www.w3.org/2000/svg">
<path d="M75.9333 68.85L49.75 131.317H32.6667L19.7833 81.4583C19 78.3917 18.325 77.2667 15.9417 75.975C12.0583 73.8667 5.64167 71.8917 0 70.6583L0.383333 68.85H27.8833C29.6804 68.8482 31.4189 69.4889 32.7851 70.6564C34.1512 71.8239 35.055 73.4413 35.3333 75.2167L42.1417 111.367L58.9583 68.85H75.9333ZM142.875 110.925C142.942 94.4333 120.075 93.525 120.233 86.1583C120.283 83.9167 122.417 81.5334 127.083 80.925C132.552 80.4056 138.06 81.373 143.025 83.725L145.858 70.475C141.025 68.6579 135.906 67.7182 130.742 67.7C114.767 67.7 103.525 76.2 103.425 88.3583C103.325 97.35 111.45 102.358 117.575 105.358C123.875 108.417 125.992 110.383 125.958 113.117C125.917 117.317 120.942 119.158 116.292 119.233C108.167 119.358 103.458 117.042 99.6917 115.292L96.7667 128.975C100.542 130.708 107.508 132.225 114.733 132.292C131.708 132.292 142.817 123.908 142.875 110.925ZM185.05 131.317H200L186.958 68.85H173.158C171.684 68.8364 170.239 69.266 169.012 70.0833C167.785 70.9005 166.831 72.0676 166.275 73.4334L142.033 131.317H159L162.375 121.983H183.108L185.05 131.317ZM167.025 109.183L175.525 85.725L180.425 109.183H167.025ZM99.025 68.85L85.6667 131.317H69.5L82.875 68.85H99.025Z" fill="white"/>
</svg>
