<svg width="200" height="200" viewBox="0 0 200 200" fill="none" xmlns="http://www.w3.org/2000/svg">
<path d="M71.35 58.3333L71.3667 58.3833L94.65 121.892V61.6416H85.0667V61.0583H118.067C133.925 61.0583 144.992 69.1916 144.992 80.85C144.992 89.35 137.408 96.4166 126.133 98.425L124.058 98.6833L126.142 98.9C132.983 99.6833 138.417 101.783 142.267 105.15L142.292 105.175L159.508 58.3333H160.092L160.108 58.3833L189.742 139.2H200V139.783H167.35V139.2H176.967L167.217 112.625H147.442V112.642L147.55 112.95C148.333 115.292 148.733 117.75 148.708 120.225V130.192C148.708 135.317 150.967 140.508 155.292 140.508C157.825 140.508 159.85 139.617 162.267 137.408L162.608 137.725C159.992 140.492 156.817 141.667 152.058 141.667C148.475 141.667 145.392 140.8 142.925 139.1L142.458 138.767C139.208 136.3 137.092 132.283 136.183 126.808L136.033 125.925L135.883 124.592L135.867 124.358L130.417 139.192H138.15V139.775H121.967V139.192H129.783L135.767 122.908V122.867C135.704 121.907 135.668 120.945 135.658 119.983V112.867C135.658 104.125 129.158 99.1166 117.825 99.1166H106.683V139.2H116.333V139.783H78.6083V139.2H88.225L78.475 112.625H51.4333L41.7833 138.908L42.1833 138.842C54.8583 136.658 60.6833 126.983 60.7667 116.8H61.35V139.783H0L45.5417 61.6416H27.2333C12.05 61.6416 5.18333 73.3666 5.075 85.0583H4.5V61.0583H59.7833L59.45 61.6416L14.2417 139.2H38.025C38.6167 139.2 39.2 139.175 39.7917 139.125L40.3917 139.075L41.1417 138.992L70.7583 58.3333H71.3417H71.35ZM153.708 75.7917L142.767 105.592L142.825 105.65L143.383 106.2C144.992 107.842 146.275 109.783 147.15 111.9L147.208 112.042H167L153.708 75.7917ZM64.975 75.7917L51.65 112.042H78.2667L64.975 75.7917ZM115.192 61.6416H106.692V98.5333H117.825C129.1 98.5333 132.55 94.425 132.55 80.975C132.55 68.3333 126.55 61.6416 115.192 61.6416Z" fill="white"/>
</svg>
