<svg width="166" height="244" viewBox="0 0 166 244" fill="none" xmlns="http://www.w3.org/2000/svg">
<path d="M40 0.5H141.639C142.87 0.5 143.867 1.49749 143.867 2.72795C143.867 8.47823 139.205 13.1398 133.455 13.1398H127.791C122.284 13.1398 117.819 17.6044 117.819 23.1118C117.819 28.6192 122.284 33.0839 127.791 33.0839H156.464C161.454 33.0839 165.5 37.1295 165.5 42.12V91.5V122V204C165.5 225.815 147.815 243.5 126 243.5H24.3609C23.1305 243.5 22.133 242.503 22.133 241.272C22.133 235.522 26.7945 230.86 32.5448 230.86H38.2088C43.7162 230.86 48.1809 226.396 48.1809 220.888C48.1809 215.381 43.7162 210.916 38.2088 210.916H9.53616C4.54562 210.916 0.5 206.871 0.5 201.88V40C0.5 18.1848 18.1848 0.5 40 0.5Z" fill="#6D6A5D" fill-opacity="0.5" stroke="#D8CFBC"/>
</svg>
