<svg width="376" height="322" viewBox="0 0 376 322" fill="none" xmlns="http://www.w3.org/2000/svg">
<path d="M60 0.5H322.5C324.709 0.5 326.5 2.29086 326.5 4.5C326.5 11.6797 320.68 17.5 313.5 17.5H280.5C273.32 17.5 267.5 23.3203 267.5 30.5C267.5 37.6797 273.32 43.5 280.5 43.5H366C371.247 43.5 375.5 47.7533 375.5 53V120.75V161V262C375.5 294.861 348.861 321.5 316 321.5H53.5C51.2909 321.5 49.5 319.709 49.5 317.5C49.5 310.32 55.3203 304.5 62.5 304.5H95.5C102.68 304.5 108.5 298.68 108.5 291.5C108.5 284.32 102.68 278.5 95.5 278.5H10C4.7533 278.5 0.5 274.247 0.5 269V60C0.5 27.1391 27.1391 0.5 60 0.5Z" fill="#6D6A5D" fill-opacity="0.5" stroke="#D8CFBC"/>
</svg>
