<svg width="784" height="475" viewBox="0 0 784 475" fill="none" xmlns="http://www.w3.org/2000/svg">
<path d="M0 60C0 26.8629 26.8629 0 60 0H656C689.137 0 716 26.8629 716 60V136.421C716 146.13 723.87 154 733.579 154C743.226 154 751.07 146.226 751.157 136.58L751.808 64.2683C751.914 52.4913 761.492 43 773.269 43C779.196 43 784 47.8044 784 53.7308V415C784 448.137 757.137 475 724 475H128C94.8629 475 68 448.137 68 415V339C68 329.059 59.9411 321 50 321C40.0589 321 32 329.059 32 339V410.667C32 422.449 22.4487 432 10.6667 432C4.77563 432 0 427.224 0 421.333V60Z" fill="#D9D9D9"/>
</svg>
