<svg width="512" height="344" viewBox="0 0 512 344" fill="none" xmlns="http://www.w3.org/2000/svg">
<path d="M60 0.5H457.59C460.854 0.5 463.5 3.14597 463.5 6.40994C463.5 13.214 457.984 18.7298 451.18 18.7298H378.29C370.639 18.7298 364.436 24.9325 364.436 32.5839C364.436 40.2352 370.639 46.4379 378.29 46.4379H502C507.247 46.4379 511.5 50.6912 511.5 55.9379V129V172V284C511.5 316.861 484.861 343.5 452 343.5H55.4099C52.146 343.5 49.5 340.854 49.5 337.59C49.5 330.786 55.0158 325.27 61.8199 325.27H133.71C141.361 325.27 147.564 319.068 147.564 311.416C147.564 303.765 141.361 297.562 133.71 297.562H9.99999C4.75329 297.562 0.5 293.309 0.5 288.062V60C0.5 27.139 27.1391 0.5 60 0.5Z" fill="#6D6A5D" fill-opacity="0.5" stroke="#D8CFBC"/>
</svg>
