<svg width="52" height="435" viewBox="0 0 52 435" fill="none" xmlns="http://www.w3.org/2000/svg">
<g opacity="0.4">
<path d="M0.0389786 414.15C0.0389786 398.861 8.37878 392.606 10.8112 390.521L15.6761 398.166C13.2437 400.251 8.37878 405.463 8.37878 414.15C8.37878 420.405 10.1162 425.965 14.6336 425.965C24.3634 425.965 18.1086 391.911 36.1781 391.911C43.823 391.911 51.4678 398.861 51.4678 412.065C51.4678 423.88 45.2129 431.177 38.2631 433.957L36.5256 424.923C40.0005 423.185 43.128 418.668 43.128 411.718C43.128 404.421 39.653 400.946 36.1781 400.946C26.7958 400.946 33.3982 435 14.6336 435C4.20887 435 0.0389786 425.965 0.0389786 414.15Z" fill="#FFFBF4"/>
<path d="M1.43073 340.499H50.0796V385.673H34.095C27.6316 385.673 22.2107 381.573 19.9173 374.484L1.43073 385.673V375.248L18.4578 364.893L17.0679 349.534H1.43073V340.499ZM25.4077 349.534L27.1451 368.646C27.4926 372.468 29.2301 376.638 34.4425 376.638H41.7398V349.534H25.4077Z" fill="#FFFBF4"/>
<path d="M0.0389786 307.482C0.0389786 290.107 12.5487 280.725 25.7534 280.725C38.9581 280.725 51.4678 290.107 51.4678 307.482C51.4678 324.856 38.9581 334.239 25.7534 334.239C12.5487 334.239 0.0389786 324.856 0.0389786 307.482ZM8.37878 307.482C8.37878 317.906 16.0236 325.204 25.7534 325.204C35.4831 325.204 43.128 317.906 43.128 307.482C43.128 297.057 35.4831 289.76 25.7534 289.76C16.0236 289.76 8.37878 297.057 8.37878 307.482Z" fill="#FFFBF4"/>
<path d="M1.43073 243.226L50.0796 225.852V235.234L10.4655 249.481V256.431L50.0796 270.678V280.06L1.43073 262.686V243.226Z" fill="#FFFBF4"/>
<path d="M1.43073 211.956H50.0796V220.991H1.43073V211.956Z" fill="#FFFBF4"/>
<path d="M1.43073 170.268L50.0796 152.893V162.276L10.4655 176.523V183.473L50.0796 197.72V207.102L1.43073 189.728V170.268Z" fill="#FFFBF4"/>
<path d="M1.43073 103.567H50.0796V148.741H34.095C27.6316 148.741 22.2107 144.641 19.9173 137.552L1.43073 148.741V138.317L18.4578 127.961L17.0679 112.602H1.43073V103.567ZM25.4077 112.602L27.1451 131.714C27.4926 135.537 29.2301 139.706 34.4425 139.706H41.7398V112.602H25.4077Z" fill="#FFFBF4"/>
<path d="M0.0407639 73.002C0.0407639 57.3649 10.4655 50.0676 24.0177 50.0676H50.0796V59.1024H24.0177C14.2879 59.1024 8.72806 64.3147 8.72806 73.002C8.72806 82.3843 14.2184 86.9017 24.0177 86.9017H50.0796V95.9365H24.0177C10.4655 95.9365 0.0407639 88.6392 0.0407639 73.002Z" fill="#FFFBF4"/>
<path d="M0.0389786 23.6294C0.0389786 8.3398 8.37878 2.08495 10.8112 0L15.6761 7.64482C13.2437 9.72977 8.37878 14.9421 8.37878 23.6294C8.37878 29.8843 10.1162 35.4442 14.6336 35.4442C24.3634 35.4442 18.1086 1.38997 36.1781 1.38997C43.823 1.38997 51.4678 8.3398 51.4678 21.5445C51.4678 33.3592 45.2129 40.6565 38.2631 43.4365L36.5256 34.4017C40.0005 32.6642 43.128 28.1468 43.128 21.197C43.128 13.8997 39.653 10.4248 36.1781 10.4248C26.7958 10.4248 33.3982 44.4789 14.6336 44.4789C4.20887 44.4789 0.0389786 35.4442 0.0389786 23.6294Z" fill="#FFFBF4"/>
</g>
</svg>
