<svg width="264" height="32" viewBox="0 0 264 32" fill="none" xmlns="http://www.w3.org/2000/svg">
<path d="M251.124 31.84C241.884 31.84 238.104 26.8 236.844 25.33L241.464 22.39C242.724 23.86 245.874 26.8 251.124 26.8C254.904 26.8 258.264 25.75 258.264 23.02C258.264 17.14 237.684 20.92 237.684 10C237.684 5.38001 241.884 0.76001 249.864 0.76001C257.004 0.76001 261.414 4.54001 263.094 8.74001L257.634 9.79001C256.584 7.69001 253.854 5.80001 249.654 5.80001C245.244 5.80001 243.144 7.90001 243.144 10C243.144 15.67 263.724 11.68 263.724 23.02C263.724 29.32 258.264 31.84 251.124 31.84Z" fill="#FFFBF4"/>
<path d="M206.614 31V1.60001H233.914V11.26C233.914 15.166 231.436 18.442 227.152 19.828L233.914 31H227.614L221.356 20.71L212.074 21.55V31H206.614ZM212.074 16.51L223.624 15.46C225.934 15.25 228.454 14.2 228.454 11.05V6.64001H212.074V16.51Z" fill="#FFFBF4"/>
<path d="M186.66 31.84C176.16 31.84 170.49 24.28 170.49 16.3C170.49 8.32001 176.16 0.76001 186.66 0.76001C197.16 0.76001 202.83 8.32001 202.83 16.3C202.83 24.28 197.16 31.84 186.66 31.84ZM186.66 26.8C192.96 26.8 197.37 22.18 197.37 16.3C197.37 10.42 192.96 5.80001 186.66 5.80001C180.36 5.80001 175.95 10.42 175.95 16.3C175.95 22.18 180.36 26.8 186.66 26.8Z" fill="#FFFBF4"/>
<path d="M147.83 31L137.33 1.60001H143L151.61 25.54H155.81L164.42 1.60001H170.09L159.59 31H147.83Z" fill="#FFFBF4"/>
<path d="M128.93 31V1.60001H134.39V31H128.93Z" fill="#FFFBF4"/>
<path d="M103.738 31L93.2383 1.60001H98.9083L107.518 25.54H111.718L120.328 1.60001H125.998L115.498 31H103.738Z" fill="#FFFBF4"/>
<path d="M63.4282 31V1.60001H90.7282V11.26C90.7282 15.166 88.2502 18.442 83.9662 19.828L90.7282 31H84.4282L78.1702 20.71L68.8882 21.55V31H63.4282ZM68.8882 16.51L80.4382 15.46C82.7482 15.25 85.2682 14.2 85.2682 11.05V6.64001H68.8882V16.51Z" fill="#FFFBF4"/>
<path d="M44.9577 31.84C35.5077 31.84 31.0977 25.54 31.0977 17.35V1.60001H36.5577V17.35C36.5577 23.23 39.7077 26.59 44.9577 26.59C50.6277 26.59 53.3577 23.272 53.3577 17.35V1.60001H58.8177V17.35C58.8177 25.54 54.4077 31.84 44.9577 31.84Z" fill="#FFFBF4"/>
<path d="M15.1198 31.84C5.87984 31.84 2.09984 26.8 0.839844 25.33L5.45984 22.39C6.71984 23.86 9.86984 26.8 15.1198 26.8C18.8998 26.8 22.2598 25.75 22.2598 23.02C22.2598 17.14 1.67984 20.92 1.67984 10C1.67984 5.38001 5.87984 0.76001 13.8598 0.76001C20.9998 0.76001 25.4098 4.54001 27.0898 8.74001L21.6298 9.79001C20.5798 7.69001 17.8498 5.80001 13.6498 5.80001C9.23984 5.80001 7.13984 7.90001 7.13984 10C7.13984 15.67 27.7198 11.68 27.7198 23.02C27.7198 29.32 22.2598 31.84 15.1198 31.84Z" fill="#FFFBF4"/>
</svg>
